<?xml version="1.0" encoding="UTF-8"?><svg id="Layer_16" xmlns="http://www.w3.org/2000/svg" width="265" height="210" viewBox="0 0 265 210"><defs><style>.cls-1{fill:#b8cb96;}.cls-2{fill:#88a18f;}.cls-3{fill:#abc7ab;}.cls-4{fill:#685d49;}</style></defs><path class="cls-2" d="m3,200.15c.34,1.8.67,3.6,1.01,5.4,9.11-6.09,19.47-14.03,29.68-24.17,15.97-15.86,25.88-31.43,32.03-43.35-6.04,1.02-12.09,2.03-18.13,3.05-1.64,9.1-6.54,27.09-23.6,43.66-7.14,6.94-14.65,11.91-20.98,15.41Z"/><path class="cls-1" d="m47.31,144.63c-19.33-8.82-18.61-56.8,6.44-88.43C105.37-8.96,256.57,0,261.56,15.89c1.57,5.01-12.38,7.56-51.57,33.05-45.18,29.39-50.42,41.47-92.95,67.29-35.72,21.69-56.62,34.38-69.73,28.4Z"/><path class="cls-3" d="m120.25,67.34c-16.02,10.67-30.82,23.4-43.61,36.69-10.43,10.83-24.28,26.42-22.91,41.25,13.27.76,32.98-11.18,63.65-29.81,42.52-25.82,47.76-37.9,92.95-67.29,38.9-25.3,52.93-28.01,51.59-32.94-50.64,10.4-101.13,25.1-141.67,52.1Z"/><path class="cls-4" d="m68.14,117.28c.54-1.01,1.08-2.03,1.63-3.04.12-.22.18-.43.17-.64-.01-.21-.12-.41-.33-.62-5.51-5.29-11.26-10.44-17.23-15.45-1.6,1.65-3.18,3.31-4.74,4.98-.16.17-.24.36-.25.56,0,.2.07.4.25.59.94,1.13,1.88,2.27,2.8,3.4-.55.59-1.09,1.18-1.63,1.77-1.94-1.62-3.9-3.22-5.88-4.8,5.9-6.51,12.13-12.88,18.68-19.07,1.95,1.69,3.88,3.4,5.78,5.12-.6.56-1.2,1.12-1.8,1.69-1.3-.79-2.61-1.58-3.93-2.36-.23-.14-.45-.2-.67-.17-.22.03-.41.12-.56.27-1.68,1.62-3.34,3.25-4.97,4.89,5.96,5.06,11.69,10.27,17.18,15.61.21.21.43.31.66.3.23,0,.44-.05.63-.15,1.04-.54,2.08-1.08,3.13-1.62.36.36.71.71,1.07,1.07-3.04,2.86-6.01,5.77-8.9,8.71-.36-.35-.72-.69-1.08-1.04Z"/><path class="cls-4" d="m95.58,87.43c.54.57,1.08,1.15,1.62,1.73-.12.62-.31,1.3-.57,2.04-.25.74-.58,1.48-.98,2.23-.4.75-.88,1.48-1.43,2.2-.55.72-1.19,1.38-1.91,1.99-1.15.97-2.38,1.69-3.71,2.19-1.32.49-2.66.71-4.04.66-1.38-.06-2.76-.4-4.16-1.03-1.4-.63-2.76-1.58-4.08-2.86-1.18-1.14-2.09-2.37-2.75-3.7-.65-1.33-1.02-2.69-1.09-4.06-.07-1.37.18-2.72.74-4.03.56-1.31,1.46-2.51,2.7-3.58,1.14-.99,2.34-1.71,3.6-2.15,1.26-.44,2.5-.65,3.72-.62,1.22.03,2.38.29,3.49.78,1.11.49,2.08,1.15,2.9,1.98.1.1.21.22.34.36.13.14.27.29.41.46.14.16.27.32.39.48.12.16.22.3.29.42-4.13,3.34-8.16,6.75-12.07,10.23,2.16,2.1,4.26,3.24,6.35,3.42,2.09.18,4.07-.53,5.99-2.13.62-.52,1.15-1.07,1.58-1.67.44-.6.8-1.19,1.1-1.78.29-.59.53-1.16.7-1.72.18-.55.32-1.04.42-1.46.15-.12.31-.25.46-.37Zm-9.39-3.31c-.71-.71-1.44-1.29-2.17-1.75-.74-.45-1.47-.75-2.21-.88-.74-.13-1.48-.09-2.22.13-.74.22-1.47.65-2.2,1.28-.64.56-1.12,1.18-1.44,1.85-.32.67-.48,1.39-.46,2.14,0,.75.19,1.52.53,2.31.34.79.86,1.57,1.54,2.35,2.82-2.51,5.71-5,8.65-7.44Z"/><path class="cls-4" d="m102.4,86.99c.5-.72,1-1.44,1.5-2.16.12-.18.2-.38.22-.6.02-.22-.06-.44-.26-.66-3.28-3.6-6.66-7.16-10.12-10.66-.21-.21-.44-.32-.7-.33-.26,0-.53.03-.8.12-.91.28-1.82.56-2.73.85-.36-.35-.72-.71-1.07-1.06,1.66-1.8,3.34-3.6,5.04-5.38.85.85,1.7,1.7,2.54,2.56.08-.06.15-.11.23-.17-.07-.95-.03-1.8.13-2.53.16-.73.4-1.38.72-1.95.32-.57.7-1.07,1.13-1.5.43-.43.9-.83,1.39-1.19.63-.46,1.28-.84,1.97-1.14.68-.3,1.39-.5,2.12-.61.73-.1,1.47-.09,2.23.04.76.13,1.52.4,2.29.81-.05-1.19.02-2.2.22-3.03.19-.82.46-1.53.8-2.1.34-.58.73-1.06,1.19-1.44.46-.39.92-.73,1.39-1.05.85-.57,1.76-1,2.73-1.29.97-.29,1.95-.39,2.95-.29,1,.09,2,.4,3,.92,1,.52,1.95,1.29,2.86,2.31,2.72,3.07,5.37,6.18,7.96,9.3.22.26.44.41.69.44.24.03.49.02.76-.05.85-.19,1.7-.38,2.56-.57.32.4.65.8.97,1.2-3.07,1.84-6.09,3.71-9.07,5.62-.33-.39-.65-.79-.98-1.18.45-.61.9-1.22,1.36-1.83.15-.21.24-.42.28-.63.04-.21-.05-.44-.26-.69-2.21-2.64-4.47-5.26-6.78-7.86-.67-.75-1.32-1.39-1.95-1.9-.63-.51-1.28-.87-1.94-1.08-.66-.2-1.37-.23-2.11-.08-.74.15-1.55.52-2.42,1.11-.37.25-.73.54-1.09.87-.36.33-.69.7-.98,1.1-.29.4-.53.83-.7,1.29-.18.46-.26.95-.25,1.47,3.29,3.52,6.49,7.09,9.61,10.69.22.25.44.39.68.41.23.02.48,0,.75-.06.73-.15,1.45-.3,2.18-.45.33.39.66.78.99,1.17-2.82,1.86-5.6,3.74-8.34,5.66-.33-.38-.66-.76-1-1.15.4-.61.81-1.23,1.22-1.84.14-.23.22-.45.26-.64.03-.2-.06-.43-.28-.68-2.25-2.57-4.54-5.12-6.88-7.64-.68-.73-1.33-1.34-1.97-1.84-.63-.49-1.27-.83-1.92-1.02-.65-.19-1.33-.2-2.05-.02-.72.17-1.49.56-2.33,1.18-.38.28-.74.59-1.09.94-.36.35-.67.73-.95,1.13-.28.41-.49.84-.64,1.3-.15.46-.22.94-.19,1.44,3.36,3.45,6.63,6.94,9.81,10.47.19.22.41.33.66.34.24,0,.48-.02.71-.08.72-.18,1.43-.36,2.15-.54.33.38.67.76,1,1.14-2.83,2.04-5.62,4.11-8.36,6.21-.34-.37-.67-.74-1.01-1.11Z"/><path class="cls-4" d="m151.85,53.13c-.04.96-.23,1.82-.56,2.56-.33.75-.74,1.4-1.23,1.98-.48.57-1,1.06-1.56,1.47-.56.41-1.09.76-1.6,1.03-.94.52-1.89.85-2.84.98-.95.13-1.86.11-2.74-.06-.87-.17-1.68-.47-2.44-.91-.76-.44-1.4-.98-1.93-1.62-.62-.76-1.02-1.52-1.19-2.29-.17-.77-.19-1.53-.05-2.28.14-.75.42-1.48.84-2.19.43-.71.93-1.38,1.5-2,.58-.62,1.21-1.19,1.9-1.71.69-.52,1.37-.96,2.04-1.33.14-.08.38-.2.7-.35.32-.15.66-.3,1.03-.45.36-.15.71-.3,1.03-.43.32-.14.55-.23.7-.29-.67-.83-1.34-1.66-2.02-2.49-.53-.63-1.07-1.11-1.62-1.42-.56-.31-1.11-.5-1.68-.56-.56-.06-1.14-.01-1.73.15-.59.16-1.18.42-1.77.75-.68.38-1.27.86-1.78,1.45-.51.58-.95,1.19-1.31,1.82-.37.63-.68,1.25-.95,1.85-.26.6-.48,1.11-.66,1.51-.26.15-.52.31-.78.46-.96-1.03-1.93-2.06-2.91-3.08.4-.51.82-1.02,1.24-1.54.42-.52.9-1.04,1.44-1.56.54-.52,1.14-1.04,1.81-1.55.67-.52,1.45-1.03,2.36-1.55.97-.55,1.99-1,3.08-1.36,1.08-.35,2.17-.52,3.27-.49,1.1.03,2.19.29,3.26.8,1.08.51,2.1,1.35,3.05,2.51,2.54,3.12,5.01,6.27,7.43,9.44.17.22.37.39.61.51.24.12.5.2.78.23.28.03.56.02.84-.03.29-.05.54-.13.77-.25.15-.07.29-.16.42-.27.13-.11.27-.23.41-.37.14-.14.27-.29.39-.44.12-.15.23-.3.35-.44.11-.05.22-.11.32-.16.36.48.73.97,1.09,1.45-.11.23-.26.51-.46.85-.2.34-.44.68-.7,1.03-.26.35-.55.68-.86.99-.31.31-.62.55-.94.72-.63.32-1.22.53-1.78.65-.56.11-1.09.12-1.6.03-.51-.09-.98-.3-1.43-.6-.45-.31-.88-.73-1.29-1.26-.09.05-.17.09-.26.14Zm-5.15-6.36c-1.38.74-2.6,1.48-3.66,2.21-1.06.73-1.87,1.46-2.44,2.18-.57.72-.88,1.45-.91,2.18-.03.74.26,1.48.88,2.25.5.62,1.04,1.07,1.6,1.36.57.29,1.13.45,1.68.49.56.04,1.1-.01,1.62-.16.53-.15,1-.34,1.43-.58.43-.24.86-.53,1.31-.88.44-.35.84-.74,1.21-1.16.36-.42.67-.87.91-1.34.25-.47.38-.96.41-1.45-1.33-1.71-2.68-3.41-4.05-5.1Z"/><path class="cls-4" d="m180.86,44.54c.33-.14.66-.28.99-.42.54.07,1.27.14,2.19.21.92.08,1.94.11,3.04.11,1.1,0,2.23-.07,3.38-.21,1.15-.14,2.22-.4,3.22-.78,1.05-.41,1.87-.91,2.46-1.52.59-.61.99-1.28,1.19-2.02.2-.74.19-1.53-.03-2.38-.21-.85-.61-1.7-1.19-2.57-.77-1.15-1.65-2.07-2.64-2.74-.99-.67-2.06-1.12-3.21-1.35-1.16-.23-2.38-.25-3.67-.05-1.29.2-2.64.58-4.04,1.16-.57.23-1.1.5-1.61.79-.51.29-.99.58-1.44.86-.45.28-.84.56-1.18.82-.34.26-.59.48-.77.64-.35.14-.69.28-1.04.42-2.79-4.67-5.68-9.32-8.68-13.93,5.93-2.65,11.99-5.19,18.15-7.59.85,1.13,1.69,2.27,2.52,3.41-5.39,2.07-10.69,4.25-15.91,6.52,1.47,2.36,2.91,4.73,4.32,7.11.26-.24.58-.48.97-.73.38-.25.78-.49,1.2-.73.41-.24.83-.46,1.26-.67.43-.21.83-.39,1.21-.55,1.79-.74,3.58-1.23,5.36-1.47,1.79-.24,3.5-.21,5.14.09,1.64.3,3.17.89,4.56,1.77,1.39.88,2.59,2.06,3.58,3.56.61.93,1.02,1.87,1.22,2.83.2.96.22,1.9.06,2.81-.16.92-.47,1.8-.94,2.65-.47.85-1.06,1.64-1.76,2.38-.7.73-1.5,1.4-2.4,1.99-.9.59-1.85,1.09-2.86,1.48-1.14.45-2.23.8-3.27,1.05-1.04.26-2,.45-2.88.59-.88.14-1.65.23-2.33.28-.68.05-1.24.09-1.68.13-.82-1.32-1.66-2.65-2.5-3.97Z"/></svg>