<?xml version="1.0" encoding="UTF-8"?><svg id="Layer_14" xmlns="http://www.w3.org/2000/svg" width="285" height="210" viewBox="0 0 285 210"><defs><style>.cls-1{fill:#b8cb96;}.cls-2{fill:#88a18f;}.cls-3{fill:#abc7ab;}.cls-4{fill:#685d49;}</style></defs><path class="cls-2" d="m3.88,199.76c0,2.12,0,4.24.01,6.35,9.68-5.52,20.86-12.97,32.29-22.96,17.87-15.63,29.96-31.89,37.87-44.57-5.9.2-11.8.4-17.69.59-3.14,10.17-10.91,30-29.94,46.27-7.97,6.81-15.94,11.31-22.54,14.31Z"/><path class="cls-1" d="m55.48,143.21c-16.76-13.21-7.73-68.1,21.49-100.34,60.2-66.43,201.73-31.94,203.69-12.93.62,5.99-13.03,6.69-54.56,29.63-47.88,26.45-54.94,39.46-99.68,62.25-37.59,19.15-59.57,30.34-70.94,21.39Z"/><path class="cls-3" d="m137.97,66.3c-17.02,9.66-33.24,21.89-47.66,35.08-11.75,10.75-27.58,26.4-28.87,43.62,12.42,3,33.16-7.54,65.43-23.97,44.74-22.79,51.8-35.8,99.68-62.25,41.22-22.78,54.97-23.63,54.56-29.5-49.74,3.81-100.08,12.58-143.14,37.03Z"/><path class="cls-4" d="m86.36,106.44c.66-.94,1.32-1.89,1.99-2.83.15-.2.23-.4.25-.61.01-.21-.07-.43-.25-.65-4.8-5.91-9.81-11.72-15.01-17.44-1.81,1.45-3.61,2.91-5.38,4.38-.18.15-.29.33-.33.52-.04.2.02.4.16.62.78,1.24,1.55,2.48,2.31,3.73-.62.52-1.24,1.04-1.86,1.56-1.7-1.84-3.43-3.68-5.18-5.5,6.76-5.76,13.82-11.33,21.17-16.69,1.67,1.92,3.32,3.85,4.95,5.79-.67.49-1.34.97-2,1.46-1.17-.95-2.35-1.89-3.54-2.82-.2-.17-.42-.25-.64-.25-.22,0-.42.07-.59.2-1.88,1.41-3.75,2.83-5.59,4.26,5.17,5.76,10.13,11.62,14.89,17.58.18.23.39.36.61.38.22.02.44,0,.64-.07,1.09-.42,2.19-.83,3.29-1.24.31.4.62.79.92,1.19-3.36,2.49-6.65,5.02-9.88,7.6-.31-.39-.63-.77-.95-1.16Z"/><path class="cls-4" d="m117.19,80c.45.63.9,1.27,1.35,1.9-.2.6-.48,1.26-.82,1.96-.35.7-.76,1.4-1.25,2.1-.49.7-1.05,1.37-1.69,2.02-.63.65-1.34,1.24-2.12,1.75-1.25.83-2.55,1.41-3.91,1.75-1.36.34-2.71.4-4.06.18-1.35-.22-2.66-.72-3.96-1.51-1.3-.79-2.51-1.9-3.64-3.32-1-1.27-1.74-2.6-2.21-4.01-.46-1.4-.63-2.79-.51-4.16.12-1.37.55-2.68,1.29-3.92.74-1.24,1.79-2.32,3.15-3.24,1.26-.85,2.54-1.42,3.83-1.71,1.29-.29,2.54-.35,3.72-.17,1.18.17,2.28.57,3.3,1.18,1.01.61,1.86,1.38,2.56,2.31.08.11.18.24.28.4.11.16.22.32.33.5.11.18.22.35.31.53.1.17.17.32.23.45-4.5,2.84-8.91,5.76-13.21,8.75,1.83,2.34,3.75,3.72,5.78,4.15,2.03.42,4.07-.05,6.15-1.42.67-.44,1.26-.93,1.77-1.48.51-.54.94-1.09,1.31-1.64.36-.55.67-1.1.92-1.63.25-.53.45-1,.61-1.4.17-.1.33-.21.5-.31Zm-8.73-4.38c-.6-.79-1.23-1.45-1.88-1.99-.65-.54-1.34-.91-2.04-1.14-.7-.22-1.44-.26-2.19-.13-.75.13-1.54.47-2.34,1.02-.71.48-1.27,1.04-1.68,1.67-.41.63-.66,1.33-.75,2.07-.09.75-.03,1.54.2,2.36.23.82.63,1.66,1.2,2.52,3.11-2.16,6.28-4.29,9.49-6.38Z"/><path class="cls-4" d="m123.9,80.35c.58-.66,1.17-1.32,1.75-1.97.14-.16.24-.36.29-.58.05-.22,0-.45-.16-.68-2.71-3.95-5.5-7.87-8.37-11.75-.17-.23-.38-.37-.63-.41-.25-.04-.52-.03-.8.03-.93.17-1.86.35-2.79.53-.3-.39-.6-.79-.89-1.18,1.88-1.6,3.78-3.18,5.71-4.76.7.94,1.4,1.89,2.09,2.83.08-.05.16-.1.24-.14.07-.96.24-1.79.5-2.5.27-.71.6-1.32.99-1.85.4-.53.84-.98,1.32-1.36.48-.38.99-.72,1.53-1.02.68-.38,1.37-.68,2.08-.9.71-.22,1.42-.34,2.14-.36.72-.02,1.44.08,2.16.3.72.22,1.42.58,2.09,1.07.13-1.19.36-2.18.67-2.98.31-.79.68-1.46,1.1-2,.42-.53.87-.97,1.37-1.3.5-.33,1-.62,1.5-.88.91-.47,1.86-.79,2.84-.97.98-.18,1.94-.16,2.89.04.95.21,1.87.62,2.75,1.24.89.62,1.69,1.49,2.41,2.61,2.16,3.35,4.26,6.71,6.32,10.09.17.28.37.45.6.51.23.06.47.07.74.03.85-.1,1.7-.2,2.55-.29.26.43.51.86.76,1.29-3.22,1.49-6.41,3.02-9.56,4.58-.26-.42-.52-.85-.78-1.27.52-.56,1.05-1.11,1.58-1.67.17-.19.29-.39.35-.59.07-.21.02-.44-.15-.71-1.76-2.86-3.56-5.7-5.41-8.54-.53-.82-1.07-1.52-1.6-2.1-.53-.58-1.1-1.01-1.71-1.28-.61-.28-1.29-.38-2.03-.31-.74.07-1.58.34-2.52.83-.4.2-.79.45-1.19.73-.4.29-.77.61-1.11.98-.34.37-.63.77-.88,1.21-.24.44-.39.91-.46,1.43,2.66,3.87,5.25,7.77,7.76,11.68.18.28.38.43.6.48.22.04.47.05.74.02.72-.07,1.45-.14,2.18-.21.27.42.53.84.79,1.27-2.99,1.53-5.94,3.1-8.86,4.7-.27-.42-.54-.83-.81-1.25.48-.56.96-1.13,1.44-1.69.17-.21.28-.42.34-.61.06-.2,0-.43-.18-.7-1.82-2.8-3.69-5.59-5.59-8.36-.55-.8-1.1-1.49-1.64-2.05-.54-.56-1.11-.97-1.71-1.23-.6-.26-1.26-.35-1.99-.26-.72.09-1.53.39-2.44.9-.41.23-.81.5-1.2.8-.4.31-.76.64-1.09,1.01-.33.37-.6.78-.82,1.22-.22.44-.35.91-.39,1.41,2.76,3.81,5.45,7.65,8.07,11.51.16.24.36.37.6.41.24.04.47.03.7,0,.72-.1,1.44-.2,2.17-.3.27.41.55.83.82,1.24-3.03,1.71-6.02,3.45-8.97,5.22-.28-.41-.56-.81-.84-1.22Z"/><path class="cls-4" d="m176.55,52.2c-.18.95-.49,1.77-.93,2.47-.43.7-.92,1.31-1.47,1.82-.55.52-1.12.95-1.72,1.29-.6.35-1.16.63-1.69.85-.98.42-1.94.64-2.88.67-.94.03-1.81-.09-2.63-.35-.81-.26-1.55-.65-2.22-1.16-.67-.51-1.2-1.12-1.62-1.82-.49-.82-.76-1.62-.81-2.4-.05-.78.05-1.53.29-2.26.25-.73.63-1.42,1.15-2.07.52-.66,1.1-1.26,1.76-1.81.65-.55,1.35-1.05,2.09-1.48.74-.44,1.47-.8,2.18-1.1.15-.06.39-.15.72-.27.33-.11.68-.23,1.06-.34.38-.11.73-.21,1.06-.31.33-.1.57-.17.72-.21-.51-.89-1.03-1.78-1.55-2.67-.41-.68-.85-1.21-1.34-1.58-.48-.37-.99-.61-1.52-.74-.53-.12-1.1-.14-1.69-.04-.59.1-1.2.28-1.83.55-.71.3-1.36.72-1.94,1.24-.58.52-1.1,1.08-1.56,1.66-.46.58-.86,1.16-1.2,1.73-.35.57-.64,1.04-.88,1.42-.27.12-.55.25-.82.37-.77-1.13-1.54-2.25-2.32-3.37.47-.46.95-.92,1.44-1.39.49-.47,1.03-.93,1.63-1.39.6-.45,1.26-.9,1.99-1.34.73-.44,1.57-.86,2.52-1.27,1.02-.44,2.09-.77,3.18-1.01,1.1-.23,2.17-.28,3.22-.13,1.05.15,2.06.53,3.01,1.14.95.61,1.8,1.55,2.53,2.81,1.94,3.35,3.82,6.72,5.66,10.1.13.23.3.42.51.57.21.15.45.25.71.31.26.06.53.08.81.06.28-.02.54-.08.78-.16.15-.06.3-.13.45-.22.14-.09.29-.2.45-.33.16-.13.31-.26.44-.4.14-.14.27-.27.41-.4.11-.04.22-.08.34-.12.27.51.55,1.03.82,1.54-.14.21-.33.48-.57.79-.25.31-.52.62-.83.94-.31.31-.63.61-.98.89-.34.28-.68.48-1.01.61-.65.25-1.25.4-1.81.46-.55.05-1.07,0-1.54-.14-.47-.15-.9-.39-1.29-.74-.38-.35-.73-.81-1.05-1.38-.09.04-.18.07-.27.11Zm-3.97-6.83c-1.45.59-2.74,1.19-3.87,1.8-1.13.61-2.03,1.24-2.69,1.89-.66.65-1.07,1.34-1.21,2.06-.14.72.03,1.49.51,2.31.39.67.84,1.17,1.34,1.51.5.34,1.02.56,1.55.66.53.1,1.06.11,1.59.01.53-.09,1.02-.23,1.47-.42.45-.19.91-.43,1.39-.73.48-.3.92-.64,1.33-1.02.41-.37.77-.78,1.08-1.23.31-.44.51-.91.61-1.39-1.02-1.82-2.06-3.65-3.11-5.46Z"/><path class="cls-4" d="m205.47,46.75c.34-.11.68-.21,1.02-.32.52.11,1.22.25,2.11.41.89.16,1.86.29,2.93.39,1.06.1,2.16.14,3.3.12,1.14-.02,2.21-.17,3.22-.45,1.1-.31,2-.71,2.7-1.23.7-.51,1.22-1.11,1.55-1.78.33-.68.47-1.42.43-2.24-.04-.82-.27-1.69-.69-2.61-.38-.83-.86-1.57-1.45-2.21-.59-.64-1.31-1.14-2.16-1.51-.85-.37-1.84-.56-2.96-.59-1.12-.03-2.4.17-3.83.58-1.07.31-2.14.63-3.2.94-.45-.92-.91-1.84-1.38-2.76.91-.27,1.81-.54,2.72-.81,2.27-.67,3.77-1.61,4.5-2.84.73-1.24.63-2.82-.33-4.73-.35-.7-.75-1.31-1.19-1.85-.44-.53-.97-.96-1.57-1.27-.6-.32-1.29-.5-2.07-.55-.78-.05-1.67.07-2.68.37-.88.26-1.72.66-2.51,1.19-.79.53-1.5,1.1-2.15,1.7-.64.6-1.21,1.19-1.71,1.76-.5.57-.89,1.05-1.18,1.42-.35.11-.7.22-1.05.34-.74-1.27-1.49-2.53-2.24-3.79.31-.23.69-.53,1.13-.9.44-.37.98-.76,1.63-1.18.65-.42,1.41-.84,2.29-1.27.88-.43,1.91-.82,3.08-1.17,1.53-.46,3.08-.76,4.64-.87,1.56-.12,3.02-.04,4.39.22,1.36.26,2.58.72,3.64,1.37,1.06.65,1.85,1.51,2.38,2.58.3.61.5,1.29.58,2.04.09.75-.01,1.53-.3,2.34-.29.81-.8,1.63-1.55,2.47-.74.84-1.79,1.64-3.13,2.42.07.07.15.13.22.2.65-.11,1.35-.19,2.11-.24.76-.05,1.53-.04,2.3.03.77.07,1.54.21,2.3.42.76.21,1.49.51,2.18.91.69.4,1.32.9,1.9,1.51.57.61,1.05,1.35,1.44,2.21.42.94.62,1.86.6,2.75-.02.89-.2,1.74-.56,2.55-.36.81-.86,1.58-1.51,2.29-.65.72-1.4,1.38-2.23,1.99-.83.61-1.74,1.14-2.72,1.6-.98.46-1.98.84-3.01,1.13-1.13.32-2.22.56-3.25.72-1.03.16-1.99.27-2.87.32-.88.06-1.66.08-2.35.06-.69-.01-1.26-.03-1.71-.04-.59-1.38-1.18-2.76-1.78-4.14Z"/></svg>