<?xml version="1.0" encoding="UTF-8"?><svg id="Layer_17" xmlns="http://www.w3.org/2000/svg" width="135" height="190" viewBox="0 0 135 190"><defs><style>.cls-1{fill:#b8cb96;}.cls-2{fill:#88a18f;}.cls-3{fill:#abc7ab;}.cls-4{fill:#685d49;}</style></defs><path class="cls-2" d="m122.9,183.77c-.72,1.27-1.44,2.54-2.16,3.82-4.31-5.99-8.93-13.54-12.84-22.7-6.12-14.32-8.33-27.42-9.07-37.23,3.7,1.74,7.4,3.49,11.1,5.23-1.44,6.98-3.21,21.04,3.43,36.06,2.78,6.29,6.35,11.19,9.55,14.81Z"/><path class="cls-1" d="m109.11,135.55c15.19-3.32,28.04-38.8,20.31-66.24C113.5,12.79,11.37-5.48,3.67,5.41c-2.43,3.43,6.06,7.61,24.81,32.85,21.62,29.1,21.72,38.86,42.57,64.89,17.52,21.87,27.76,34.66,38.06,32.41Z"/><path class="cls-3" d="m82.51,66.59c7.6,10.5,13.81,22.32,18.55,34.22,3.86,9.7,8.67,23.47,3.65,34.17-8.95-1.62-18.63-13.67-33.67-32.44-20.85-26.03-20.95-35.79-42.57-64.89C9.86,12.6,1.37,8.3,3.62,4.88c30.48,16,59.67,35.14,78.89,61.71Z"/><path class="cls-4" d="m36.53,32.4c-1.32-1.06-2.26-2.15-2.81-3.3-.56-1.15-.75-2.32-.57-3.52.18-1.2.71-2.4,1.63-3.59.91-1.19,2.17-2.36,3.8-3.47,1.53-1.05,3.14-1.86,4.82-2.41,1.68-.56,3.36-.85,5.03-.88,1.66-.03,3.27.22,4.82.75,1.54.53,2.94,1.35,4.2,2.46,1.35,1.2,2.24,2.41,2.69,3.64.44,1.23.5,2.43.19,3.61-.31,1.18-.95,2.31-1.92,3.4-.97,1.09-2.18,2.11-3.65,3.07-.87.57-1.8,1.08-2.77,1.53-.98.45-1.98.81-3.01,1.08-1.03.27-2.08.45-3.14.53-1.06.08-2.12.03-3.18-.13-1.06-.17-2.1-.47-3.13-.91-1.03-.44-2.02-1.05-2.98-1.82Zm1.8-.97c.86.7,1.82,1.18,2.86,1.43,1.04.26,2.13.31,3.27.18,1.14-.13,2.32-.45,3.53-.95,1.22-.5,2.44-1.16,3.66-1.97,1.4-.93,2.56-1.86,3.49-2.79.93-.94,1.57-1.86,1.94-2.78.37-.92.43-1.82.18-2.71-.25-.89-.84-1.75-1.78-2.57-.9-.79-1.91-1.32-3.01-1.59-1.1-.27-2.26-.34-3.45-.19-1.2.14-2.41.47-3.64.99-1.23.52-2.41,1.16-3.54,1.93-1.41.96-2.57,1.93-3.48,2.91-.91.98-1.52,1.95-1.85,2.89-.33.95-.35,1.86-.07,2.74.28.88.91,1.71,1.87,2.49Z"/><path class="cls-4" d="m48.75,40.5c.63.28,1.26.57,1.88.85.16.07.33.11.53.11.19,0,.39-.05.57-.18,3.13-2.15,6.33-4.26,9.58-6.32.19-.12.3-.26.32-.42.02-.16,0-.32-.07-.48-.2-.55-.41-1.1-.62-1.65.33-.21.67-.42,1-.63,1.51,1.02,3.01,2.05,4.5,3.08-.79.49-1.59.98-2.37,1.47.05.04.09.09.14.14.84-.04,1.58,0,2.22.1.64.11,1.2.26,1.68.45.49.2.91.43,1.26.69.36.26.68.54.98.83.37.37.68.76.91,1.16.23.4.38.81.45,1.24.07.42.03.86-.11,1.3-.14.44-.39.88-.76,1.32,1.03-.02,1.9.03,2.6.16.7.12,1.3.29,1.79.49.49.2.89.44,1.2.71.32.27.6.54.86.81.46.5.81,1.02,1.03,1.58.22.56.29,1.11.19,1.68-.1.56-.37,1.13-.81,1.7-.44.57-1.09,1.11-1.95,1.63-2.57,1.57-5.11,3.17-7.61,4.79-.21.13-.32.28-.34.42-.02.14,0,.29.07.44.19.49.38.98.57,1.48-.31.21-.63.41-.94.62-1.64-1.72-3.3-3.42-4.99-5.11.32-.21.63-.42.95-.63.52.24,1.05.49,1.57.73.18.08.36.12.53.14.18.01.37-.04.57-.17,2.13-1.4,4.29-2.78,6.48-4.13.63-.39,1.17-.77,1.61-1.13.44-.36.75-.73.93-1.11.18-.38.21-.78.09-1.21-.12-.43-.42-.9-.9-1.4-.21-.22-.45-.43-.72-.64-.27-.21-.58-.4-.92-.57-.34-.17-.71-.31-1.1-.42-.39-.1-.81-.16-1.26-.15-3.1,1.91-6.14,3.86-9.13,5.85-.21.14-.32.28-.33.42-.01.14.01.29.07.45.14.43.29.86.43,1.29-.32.21-.64.43-.95.64-1.64-1.61-3.31-3.21-4.99-4.79.32-.22.64-.44.96-.65.53.22,1.06.45,1.59.67.2.07.38.12.55.13.17.01.36-.05.57-.19,2.15-1.44,4.34-2.87,6.55-4.27.64-.41,1.18-.79,1.62-1.17.44-.37.75-.75.93-1.13.18-.38.21-.78.08-1.2-.13-.42-.44-.88-.94-1.38-.23-.23-.49-.44-.78-.65-.29-.21-.61-.4-.96-.57-.35-.17-.72-.3-1.12-.39-.4-.09-.82-.13-1.26-.12-3.15,1.99-6.25,4.02-9.29,6.09-.19.13-.28.27-.29.42,0,.15.02.29.08.43.16.43.33.87.49,1.3-.32.22-.64.44-.96.66-1.79-1.65-3.61-3.29-5.45-4.91.32-.23.65-.45.97-.68Z"/><path class="cls-4" d="m77.22,69.1c.55.33,1.1.67,1.64,1.01.14.08.29.13.47.16.18.02.35-.02.53-.13,3-1.88,6.06-3.72,9.17-5.51.18-.11.29-.24.32-.39.03-.15.02-.32-.03-.49-.14-.56-.29-1.13-.43-1.69.32-.18.64-.36.96-.55,1.3,1.14,2.58,2.28,3.84,3.43-.76.42-1.52.85-2.27,1.28.04.05.08.1.12.15.77.03,1.44.12,2.01.28.57.15,1.06.35,1.49.59.42.23.79.5,1.09.78.3.29.58.59.82.91.31.4.55.81.73,1.23.18.42.28.84.31,1.27.03.43-.04.86-.21,1.28-.16.43-.43.85-.79,1.26.93.06,1.72.18,2.34.36.63.18,1.15.38,1.58.63.42.24.77.51,1.03.8.26.29.5.58.71.87.38.53.65,1.08.81,1.65.16.57.17,1.13.04,1.69-.13.56-.43,1.1-.87,1.63-.45.53-1.08,1.02-1.9,1.48-2.45,1.37-4.87,2.76-7.25,4.19-.2.12-.31.25-.34.39-.03.14-.02.29.03.45.13.51.27,1.01.4,1.52-.3.18-.6.36-.9.54-1.34-1.84-2.71-3.67-4.11-5.49.3-.19.6-.37.91-.56.45.28.91.57,1.36.86.15.09.31.15.47.18.16.03.34-.01.53-.13,2.03-1.22,4.09-2.43,6.18-3.61.6-.34,1.12-.68,1.54-1,.42-.33.73-.67.93-1.04.2-.36.25-.76.18-1.2-.07-.43-.31-.93-.7-1.47-.17-.23-.37-.46-.6-.69-.23-.23-.49-.45-.79-.64-.29-.2-.61-.36-.96-.5-.35-.14-.72-.22-1.13-.25-2.95,1.66-5.86,3.36-8.71,5.1-.2.12-.31.25-.33.39-.02.14-.01.29.03.45.1.44.19.88.29,1.32-.3.19-.61.37-.91.56-1.36-1.74-2.74-3.47-4.15-5.19.3-.19.61-.38.92-.57.46.26.92.53,1.38.8.17.09.34.15.49.18.15.03.33-.02.53-.15,2.06-1.26,4.14-2.51,6.25-3.73.61-.35,1.13-.7,1.56-1.03.43-.33.74-.68.93-1.05.19-.36.25-.76.17-1.19-.08-.43-.33-.91-.75-1.45-.19-.24-.41-.48-.65-.71-.25-.23-.52-.45-.82-.65-.3-.19-.63-.35-.98-.48-.36-.12-.73-.2-1.14-.22-3.01,1.73-5.97,3.5-8.88,5.31-.18.11-.27.24-.29.39-.02.15,0,.29.04.44.12.44.23.89.34,1.33-.31.19-.61.39-.92.58-1.5-1.79-3.02-3.58-4.58-5.35.31-.2.62-.4.93-.59Z"/><path class="cls-4" d="m95.26,91.94c.57.47,1.14.95,1.7,1.42.14.11.28.18.44.22.15.03.32,0,.49-.1,2.85-1.68,5.75-3.32,8.71-4.91.18-.1.29-.22.33-.37.04-.15.04-.32-.01-.5-.17-.68-.34-1.36-.51-2.04.31-.16.62-.33.92-.49,1.25,1.39,2.48,2.8,3.69,4.21-3.94,2.05-7.8,4.18-11.56,6.39-.17.1-.27.22-.31.37-.03.15-.03.29.01.42.23.67.45,1.34.67,2.01-.3.17-.59.35-.88.52-1.49-2.22-3.02-4.42-4.59-6.61.3-.18.6-.36.89-.54Zm17.46-5.28c-.14-.22-.24-.46-.3-.7-.06-.25-.06-.49-.02-.71.04-.23.14-.44.29-.64.15-.2.35-.37.63-.5.27-.14.55-.21.83-.22.28-.01.54.02.79.1.25.08.48.21.69.38.21.17.39.37.53.59.17.27.29.53.36.78.07.25.08.49.04.71-.04.22-.14.43-.29.62-.15.19-.35.35-.61.48-.28.14-.56.22-.83.23-.28.02-.54-.01-.8-.09-.26-.08-.49-.21-.71-.38-.22-.18-.41-.39-.57-.64Z"/><path class="cls-4" d="m102.49,103.56c-.06-.24-.11-.5-.12-.79-.02-.29.01-.58.08-.87.07-.29.2-.57.38-.83.18-.26.43-.49.76-.67.38-.22.76-.35,1.14-.39.38-.04.74-.01,1.08.08.34.09.66.23.96.42.3.18.55.38.76.6.05-.03.09-.05.14-.08,0-.29.02-.61.07-.96.05-.35.16-.7.32-1.06.16-.36.39-.71.69-1.05.3-.34.69-.64,1.17-.9.67-.36,1.37-.58,2.09-.64.72-.06,1.42.01,2.11.24.68.23,1.33.59,1.94,1.1.6.51,1.14,1.16,1.6,1.94.33.56.58,1.08.78,1.58.2.49.37.98.51,1.46.8,1.41,1.59,2.83,2.37,4.25-.53.24-1.07.47-1.6.71-.5-1.06-1-2.11-1.51-3.16-.04.02-.07.04-.11.06-.12.26-.24.52-.36.75-.12.24-.26.46-.43.67-.16.21-.36.4-.58.59-.22.18-.5.36-.83.53-.62.33-1.26.51-1.92.57-.66.05-1.31-.03-1.94-.25-.64-.22-1.25-.59-1.84-1.09-.59-.51-1.13-1.16-1.62-1.96-.14-.23-.27-.47-.39-.72-.12-.24-.22-.48-.31-.7-.09-.22-.16-.43-.21-.62-.05-.19-.08-.35-.11-.48-.1-.07-.22-.14-.35-.2-.14-.06-.29-.1-.45-.12-.17-.02-.34,0-.52.03-.18.04-.36.11-.54.21-.15.09-.29.2-.4.33-.11.13-.21.28-.27.43-.07.16-.11.31-.12.48-.01.17,0,.32.03.46.91,1.45,1.81,2.9,2.69,4.35.49.8.79,1.53.93,2.19.14.66.15,1.24.03,1.76-.11.51-.32.95-.62,1.32-.3.37-.63.66-1.01.88-.7.41-1.44.61-2.23.61-.79,0-1.56-.17-2.34-.5-.78-.34-1.53-.83-2.26-1.48-.73-.65-1.39-1.43-1.97-2.34-.5-.78-.9-1.54-1.2-2.29-.3-.75-.48-1.45-.53-2.11-.06-.66.02-1.24.24-1.76.22-.52.58-.94,1.11-1.26.4-.25.81-.4,1.23-.45.41-.06.82-.04,1.21.05.39.09.77.24,1.13.45.36.21.7.45,1.02.74.05-.03.1-.06.16-.09Zm.5,1.25c-.14-.13-.32-.25-.54-.34-.22-.1-.47-.16-.73-.19-.27-.03-.56-.01-.87.05-.31.06-.63.19-.96.39-.33.2-.59.44-.76.72-.18.28-.29.58-.35.89-.06.32-.06.64-.01.98.05.33.12.66.22.99.1.32.22.63.37.92.14.29.29.55.43.78.31.49.67.94,1.07,1.37.4.42.83.76,1.28,1.02.45.25.92.4,1.41.43.49.03.99-.1,1.49-.39.22-.13.41-.31.59-.54.17-.23.29-.5.36-.8.07-.3.07-.64,0-1.03-.07-.38-.24-.79-.5-1.23-.82-1.34-1.66-2.68-2.5-4.01Zm6.69-1.02c.25.41.54.75.88,1,.34.25.71.42,1.13.49.42.07.88.06,1.37-.05.49-.11,1.03-.32,1.6-.62.55-.29.99-.6,1.33-.95.34-.35.58-.7.72-1.07.14-.37.19-.75.13-1.15-.05-.4-.2-.8-.43-1.2-.2-.34-.45-.63-.76-.87-.3-.24-.66-.41-1.07-.5-.4-.09-.86-.09-1.36,0-.5.09-1.05.29-1.65.61-.58.31-1.05.64-1.4.99-.35.36-.6.72-.75,1.09-.15.37-.2.75-.15,1.13.05.38.18.75.41,1.12Z"/></svg>