<?xml version="1.0" encoding="UTF-8"?><svg id="Layer_15" xmlns="http://www.w3.org/2000/svg" width="265" height="245" viewBox="0 0 265 245"><defs><style>.cls-1{fill:#b8cb96;}.cls-2{fill:#88a18f;}.cls-3{fill:#abc7ab;}.cls-4{fill:#685d49;}</style></defs><path class="cls-2" d="m262.26,236.07c-.34,2.19-.67,4.37-1.01,6.56-9.13-7.22-19.5-16.67-29.73-28.78-16-18.94-25.92-37.63-32.09-51.97,6.06,1.13,12.12,2.26,18.17,3.39,1.64,10.99,6.55,32.69,23.64,52.48,7.16,8.29,14.68,14.18,21.03,18.32Z"/><path class="cls-1" d="m217.87,169.58c19.38-11,18.68-69.09-6.42-106.97C159.74-15.44,8.19-2.07,3.19,17.25c-1.58,6.09,12.41,8.95,51.67,39.17,45.27,34.84,50.52,49.37,93.13,79.93,35.8,25.67,56.73,40.69,69.87,33.23Z"/><path class="cls-3" d="m144.8,77.2c16.05,12.65,30.88,27.83,43.69,43.71,10.45,12.95,24.33,31.59,22.95,49.57-13.3,1.14-33.05-12.99-63.78-35.03-42.61-30.56-47.86-45.1-93.13-79.93C15.55,25.52,1.49,22.48,2.83,16.48c50.75,11.75,101.35,28.71,141.97,60.72Z"/><path class="cls-4" d="m61.7,38.58c1.46.14,2.93.29,4.38.44.31.04.6.01.86-.07.26-.08.49-.26.68-.53,5.04-6.98,10.36-13.86,15.97-20.64-2.53-1.02-5.08-2.02-7.65-2.99-.27-.1-.53-.13-.81-.08-.27.05-.52.18-.75.39-1.36,1.18-2.7,2.37-4.04,3.57-.91-.33-1.83-.66-2.74-.99,1.77-2.29,3.57-4.56,5.4-6.83,10.01,3.68,19.72,7.71,29.12,12.07-1.89,2.13-3.75,4.28-5.57,6.44-.86-.39-1.72-.78-2.59-1.16.75-1.38,1.52-2.76,2.29-4.14.15-.24.17-.45.09-.64-.08-.19-.24-.33-.46-.43-2.47-1.1-4.96-2.17-7.48-3.22-5.64,6.71-10.99,13.53-16.06,20.45-.19.27-.25.51-.18.71.08.21.2.38.38.53,1.01.77,2.01,1.55,3.01,2.33-.33.45-.66.9-.99,1.36-4.54-1.8-9.15-3.53-13.83-5.17.32-.46.65-.93.97-1.39Z"/><path class="cls-4" d="m107.05,53.66c-.54.65-1.07,1.3-1.6,1.96-.79.08-1.66.13-2.62.14-.96,0-1.95-.05-2.97-.16-1.02-.12-2.05-.3-3.09-.56-1.04-.26-2.04-.61-2.99-1.06-1.53-.71-2.8-1.58-3.82-2.61-1.02-1.03-1.7-2.17-2.06-3.44-.35-1.27-.35-2.63.03-4.1.38-1.47,1.19-3,2.45-4.58,1.12-1.41,2.46-2.6,4-3.56,1.54-.97,3.2-1.67,4.95-2.1,1.75-.43,3.54-.56,5.35-.4,1.81.16,3.54.65,5.18,1.47,1.51.76,2.68,1.63,3.52,2.62.83.99,1.37,2.02,1.6,3.09.23,1.07.18,2.15-.17,3.24-.34,1.09-.93,2.11-1.76,3.06-.1.11-.22.24-.36.4-.14.15-.3.31-.46.48-.16.17-.33.32-.5.47-.17.15-.31.27-.44.37-5.18-2.69-10.48-5.28-15.88-7.76-2.08,2.55-2.89,4.81-2.5,6.75.39,1.94,1.86,3.49,4.38,4.69.81.39,1.64.68,2.5.88.85.2,1.68.34,2.48.41.8.08,1.56.11,2.28.09.72-.01,1.35-.04,1.88-.07.19.1.39.2.58.29Zm1.52-9.22c.7-.82,1.25-1.62,1.65-2.38.39-.77.59-1.49.59-2.17,0-.68-.23-1.32-.68-1.91-.45-.59-1.16-1.13-2.13-1.61-.86-.42-1.75-.69-2.69-.8-.94-.11-1.89-.06-2.84.15-.96.21-1.9.58-2.82,1.1-.92.52-1.79,1.2-2.6,2.04,3.9,1.8,7.74,3.66,11.52,5.58Z"/><path class="cls-4" d="m109.58,59.52c1,.21,2,.43,3,.65.25.05.51.05.78,0,.27-.05.51-.19.7-.42,3.3-3.93,6.71-7.82,10.23-11.67.21-.23.29-.46.24-.68-.05-.23-.16-.44-.34-.66-.56-.72-1.12-1.43-1.68-2.15.36-.39.72-.79,1.08-1.18,2.62,1,5.22,2.03,7.8,3.08-.87.92-1.74,1.83-2.59,2.75.09.05.17.1.26.15,1.16-.29,2.21-.45,3.14-.48.94-.03,1.79.03,2.56.17.77.15,1.47.35,2.09.62.62.27,1.21.58,1.76.92.7.43,1.3.9,1.82,1.41.51.51.91,1.06,1.2,1.64.28.59.43,1.22.44,1.88,0,.67-.15,1.36-.46,2.09,1.42-.31,2.66-.47,3.69-.48,1.04-.01,1.94.06,2.71.22.77.16,1.44.39,1.99.69.56.3,1.08.61,1.56.94.87.59,1.58,1.26,2.13,1.99.55.74.88,1.52.99,2.36.11.84-.03,1.72-.41,2.65-.38.93-1.06,1.88-2.03,2.85-2.92,2.92-5.78,5.88-8.57,8.87-.23.25-.33.48-.3.69.03.21.12.42.27.62.46.66.92,1.31,1.37,1.97-.35.38-.7.76-1.05,1.13-2.93-2.03-5.91-4.03-8.95-5.99.35-.39.69-.77,1.04-1.16.82.21,1.65.42,2.47.63.28.06.54.08.79.06.25-.03.49-.16.71-.4,2.36-2.57,4.77-5.11,7.23-7.63.71-.73,1.3-1.41,1.75-2.05.45-.63.73-1.25.81-1.84.09-.59-.04-1.18-.39-1.76-.35-.58-.97-1.17-1.87-1.77-.38-.25-.81-.49-1.28-.72-.48-.23-.99-.42-1.54-.58-.55-.15-1.12-.26-1.71-.3-.59-.04-1.2,0-1.82.13-3.45,3.56-6.8,7.17-10.05,10.82-.23.26-.32.49-.27.69.05.2.14.41.29.62.38.57.77,1.14,1.15,1.72-.35.39-.69.78-1.04,1.17-2.95-1.85-5.94-3.66-8.97-5.44.34-.4.68-.8,1.03-1.2.83.17,1.66.34,2.49.51.31.05.58.06.82.03.24-.03.48-.17.7-.43,2.33-2.65,4.71-5.27,7.14-7.88.7-.75,1.28-1.45,1.72-2.11.44-.65.7-1.27.78-1.86.08-.59-.07-1.17-.44-1.73-.37-.57-1.03-1.13-1.96-1.7-.42-.26-.89-.49-1.39-.71-.51-.22-1.04-.4-1.6-.54-.56-.14-1.14-.22-1.74-.24-.6-.02-1.21.04-1.81.19-3.43,3.71-6.76,7.46-9.99,11.25-.2.23-.26.46-.2.67.06.21.16.41.31.59.43.57.85,1.13,1.27,1.7-.34.4-.68.8-1.02,1.21-3.22-1.83-6.5-3.62-9.82-5.36.33-.41.67-.82,1.01-1.23Z"/><path class="cls-4" d="m162.25,91.56c-1.05.21-2.03.27-2.93.2-.9-.08-1.73-.24-2.48-.48-.76-.24-1.44-.53-2.04-.88-.61-.35-1.13-.69-1.58-1.02-.84-.63-1.47-1.31-1.89-2.06-.42-.75-.66-1.5-.72-2.26-.06-.76.04-1.51.32-2.24.27-.73.7-1.4,1.28-2,.68-.7,1.43-1.22,2.25-1.54.82-.33,1.68-.52,2.56-.58.88-.06,1.78,0,2.69.18.91.18,1.79.44,2.63.77.85.33,1.65.72,2.4,1.16.75.44,1.42.9,2,1.36.13.1.31.26.56.48.25.22.5.47.76.73.26.26.5.51.73.73.23.23.4.39.5.49.76-.71,1.53-1.42,2.31-2.12.59-.55,1-1.07,1.23-1.57.23-.5.31-.98.26-1.44-.06-.46-.24-.91-.56-1.35-.32-.44-.74-.86-1.26-1.28-.59-.47-1.28-.85-2.06-1.15-.79-.3-1.59-.53-2.39-.7-.81-.17-1.59-.3-2.35-.39-.76-.09-1.38-.16-1.89-.23-.24-.18-.47-.36-.71-.53.96-.99,1.93-1.98,2.91-2.97.68.23,1.37.47,2.07.71.7.24,1.41.53,2.13.87.72.33,1.45.72,2.19,1.17.74.44,1.51.98,2.29,1.61.84.68,1.58,1.41,2.22,2.21.64.8,1.06,1.63,1.27,2.5.21.87.15,1.78-.18,2.73-.33.95-1.04,1.91-2.12,2.9-2.89,2.63-5.72,5.29-8.49,7.99-.19.19-.32.39-.38.61-.07.22-.08.45-.04.68.04.23.13.45.26.67.13.22.29.4.48.56.12.1.26.19.41.27.15.08.32.16.51.24.19.08.39.15.58.2.2.05.38.11.56.17.09.07.17.15.26.22-.42.41-.83.81-1.25,1.22-.27-.03-.61-.08-1.03-.16-.41-.07-.84-.18-1.29-.3-.44-.12-.88-.27-1.3-.44-.42-.17-.76-.36-1.03-.57-.52-.42-.92-.84-1.2-1.26-.28-.42-.44-.84-.49-1.28-.04-.43.04-.87.24-1.3.2-.44.54-.89,1-1.35-.07-.06-.15-.12-.22-.17Zm5.63-5.62c-1.17-.94-2.3-1.76-3.39-2.45-1.08-.69-2.1-1.18-3.05-1.48-.95-.3-1.85-.38-2.68-.23-.83.14-1.59.56-2.27,1.25-.55.56-.91,1.11-1.07,1.64-.16.53-.18,1.03-.08,1.5.11.46.32.89.63,1.28.31.39.65.73,1.03,1.02.38.29.82.56,1.33.83.51.27,1.04.49,1.6.68.56.19,1.13.32,1.71.4.58.08,1.15.07,1.69-.03,1.5-1.49,3.02-2.96,4.55-4.43Z"/><path class="cls-4" d="m183.23,107.47c8.76-.63,17.62-.91,26.55-.83.67.72,1.34,1.45,2,2.18-5.16,3.92-10.16,7.95-14.98,12.09,1.27,1.35,2.53,2.72,3.76,4.09-.7.59-1.4,1.18-2.09,1.78-1.24-1.36-2.49-2.71-3.76-4.06-1.55,1.34-3.08,2.7-4.59,4.07-.22.2-.34.39-.36.59-.02.19.03.41.16.66.42.85.83,1.7,1.24,2.55-.36.33-.72.66-1.08.99-2.51-2.69-5.1-5.35-7.74-7.98.36-.34.71-.68,1.07-1.01.87.47,1.73.94,2.59,1.41.24.13.46.19.66.19.2,0,.41-.11.63-.31,1.5-1.39,3.02-2.76,4.56-4.12-3.42-3.53-6.96-7.01-10.61-10.43.66-.61,1.32-1.22,1.98-1.82Zm4.34,4.02c2.17,2.12,4.29,4.26,6.37,6.42,2.67-2.32,5.4-4.62,8.17-6.87.91-.58,1.82-1.16,2.73-1.74-.02-.13-.05-.27-.07-.4-6.4.04-12.77.27-19.08.67-.03.12-.05.23-.08.35.65.52,1.3,1.05,1.95,1.57Z"/></svg>