<?xml version="1.0" encoding="UTF-8"?><svg id="Layer_13" xmlns="http://www.w3.org/2000/svg" width="245" height="125" viewBox="0 0 245 125"><defs><style>.cls-1{fill:#b8cb96;}.cls-2{fill:#88a18f;}.cls-3{fill:#abc7ab;}.cls-4{fill:#685d49;}</style></defs><path class="cls-2" d="m241.74,116.62c.41,1.47.81,2.95,1.22,4.42-8.29-2.4-18.07-5.91-28.52-11.16-16.35-8.21-28.51-17.72-36.86-25.36,4.44-.74,8.87-1.48,13.31-2.22,4.31,6.6,13.94,19.24,31.28,27.72,7.26,3.55,14.07,5.5,19.58,6.6Z"/><path class="cls-1" d="m192.32,84.97c9.94-11.67-7.42-48.5-35.44-66.57C99.14-18.85.28,26.17,2.5,39.68c.7,4.26,11.01,2.71,46.42,12.49,40.82,11.28,48.6,19.27,86.37,28.47,31.73,7.73,50.29,12.25,57.03,4.33Z"/><path class="cls-3" d="m115.94,43.75c14.56,4.19,29.02,10.28,42.33,17.31,10.84,5.73,25.67,14.26,29.97,26.04-8.68,3.93-26.19-.31-53.42-6.95-37.77-9.2-45.55-17.19-86.37-28.47C13.29,41.97,2.87,43.42,2.04,39.27c37.82-4.74,77.06-6.13,113.9,4.47Z"/><path class="cls-4" d="m52.07,40.41c1.03-.21,2.06-.42,3.09-.62.22-.04.41-.12.55-.23.14-.12.23-.29.26-.53.84-6.16,1.78-12.32,2.84-18.48-2.1-.15-4.2-.28-6.3-.39-.22-.01-.41.03-.57.13-.16.1-.28.25-.35.45-.43,1.15-.86,2.31-1.28,3.46-.74-.03-1.48-.07-2.22-.1.28-2.03.56-4.05.86-6.08,8.18.34,16.27.99,24.25,1.92-.43,2-.84,4-1.24,6-.72-.08-1.45-.16-2.17-.24-.02-1.18-.04-2.36-.06-3.54,0-.21-.06-.37-.19-.49-.13-.12-.29-.19-.48-.21-2.08-.22-4.16-.41-6.26-.59-1.12,6.15-2.13,12.3-3.03,18.44-.03.24.01.42.14.56.13.14.27.24.45.31.95.34,1.9.69,2.84,1.05-.06.4-.12.81-.18,1.21-3.68-.33-7.37-.6-11.1-.8.05-.41.1-.81.15-1.22Z"/><path class="cls-4" d="m87.79,41.38c-.14.61-.28,1.22-.42,1.83-.5.24-1.07.48-1.72.71-.65.23-1.33.42-2.06.56-.73.15-1.48.24-2.27.29-.79.05-1.58.01-2.37-.1-1.27-.18-2.42-.54-3.46-1.07-1.04-.53-1.89-1.22-2.57-2.08-.68-.86-1.15-1.86-1.42-3.03-.27-1.16-.27-2.47,0-3.92.24-1.29.7-2.46,1.38-3.53.68-1.06,1.52-1.96,2.53-2.69,1.01-.72,2.16-1.24,3.44-1.55,1.28-.31,2.62-.36,4.03-.15,1.3.19,2.41.56,3.34,1.09.93.53,1.67,1.16,2.21,1.89.55.73.9,1.54,1.06,2.43.16.89.13,1.78-.09,2.68-.03.11-.06.23-.1.38-.04.15-.09.3-.14.46-.05.16-.11.32-.17.47-.06.15-.12.27-.16.38-4.44-.77-8.93-1.44-13.45-2.02-.47,2.35-.21,4.2.73,5.54.94,1.34,2.47,2.16,4.57,2.47.68.1,1.34.13,1.98.08.64-.05,1.25-.14,1.81-.27.56-.13,1.09-.28,1.57-.46.48-.18.9-.34,1.25-.49.16.03.33.06.49.08Zm-2.2-7.19c.18-.77.26-1.49.25-2.15-.01-.66-.14-1.24-.4-1.74-.25-.5-.64-.92-1.16-1.25-.52-.33-1.2-.56-2.02-.68-.73-.11-1.43-.09-2.1.05-.67.14-1.28.4-1.85.78-.57.38-1.06.87-1.49,1.47-.42.6-.76,1.3-.99,2.1,3.27.42,6.52.89,9.75,1.41Z"/><path class="cls-4" d="m91.48,45.15c.75-.08,1.5-.15,2.25-.22.18-.02.36-.08.53-.18.17-.1.28-.26.33-.48.92-3.72,1.89-7.44,2.89-11.16.06-.22.03-.41-.08-.56-.11-.15-.27-.29-.46-.41-.63-.4-1.27-.79-1.91-1.18.1-.38.2-.76.3-1.14,2.13.1,4.26.22,6.38.36-.26.9-.51,1.79-.77,2.69.08.02.16.03.23.05.68-.5,1.33-.88,1.95-1.13.62-.25,1.22-.42,1.8-.51.57-.08,1.12-.1,1.64-.06.52.05,1.03.12,1.52.24.63.15,1.21.34,1.73.59.53.25,1,.56,1.4.93.4.37.72.8.96,1.3.24.5.38,1.06.42,1.68.86-.59,1.65-1.02,2.35-1.29.7-.27,1.34-.45,1.93-.52.58-.08,1.12-.08,1.6,0,.49.08.95.18,1.39.3.8.22,1.52.53,2.15.95.64.41,1.13.92,1.5,1.52.36.6.57,1.3.63,2.1.06.8-.09,1.69-.44,2.67-1.04,2.95-2.05,5.91-3.03,8.88-.08.25-.08.45.01.6.09.15.22.28.38.4.52.38,1.05.76,1.56,1.14-.13.37-.25.75-.38,1.13-2.66-.8-5.35-1.56-8.05-2.29.12-.38.23-.76.35-1.13.63-.05,1.27-.09,1.9-.14.21-.02.4-.07.56-.16.17-.08.28-.24.36-.48.81-2.53,1.64-5.06,2.49-7.58.25-.73.42-1.39.51-1.99.1-.59.07-1.12-.07-1.59-.14-.47-.43-.88-.87-1.22-.44-.35-1.07-.63-1.89-.85-.35-.09-.72-.16-1.13-.21-.41-.05-.82-.06-1.25-.04-.43.02-.85.09-1.27.21-.42.12-.82.3-1.2.55-1.12,3.54-2.21,7.08-3.25,10.63-.07.25-.06.45.04.59.1.14.23.27.4.39.45.34.89.67,1.34,1.01-.11.38-.23.76-.34,1.14-2.61-.67-5.23-1.31-7.88-1.91.1-.38.21-.76.31-1.15.62-.08,1.24-.15,1.86-.22.23-.04.42-.09.57-.18.15-.08.27-.24.34-.5.73-2.56,1.47-5.12,2.24-7.67.22-.74.37-1.41.45-2,.08-.6.04-1.13-.12-1.59-.15-.46-.46-.86-.91-1.19-.45-.33-1.1-.59-1.93-.78-.38-.09-.78-.15-1.2-.18-.42-.04-.85-.04-1.28,0-.43.03-.85.12-1.27.25-.41.13-.8.33-1.16.59-1.01,3.6-1.98,7.21-2.92,10.83-.06.22-.03.4.08.55.11.15.25.27.4.37.48.32.95.65,1.42.97-.1.38-.2.77-.3,1.15-2.79-.6-5.59-1.17-8.42-1.69.09-.39.18-.77.27-1.16Z"/><path class="cls-4" d="m137.94,56.24c-.68.43-1.35.74-2,.91-.66.18-1.29.27-1.89.28-.61.01-1.17-.03-1.7-.14-.53-.11-1-.23-1.42-.37-.78-.26-1.43-.62-1.95-1.08-.52-.46-.92-.97-1.19-1.53-.28-.56-.43-1.15-.47-1.78-.04-.63.05-1.24.26-1.84.25-.7.61-1.29,1.08-1.75.47-.46,1-.83,1.59-1.1.59-.28,1.24-.46,1.93-.56.69-.1,1.39-.13,2.08-.1.7.03,1.38.11,2.05.25.67.14,1.28.31,1.84.5.12.04.3.12.55.22.24.1.5.22.77.35.26.13.52.25.75.36.23.11.4.19.51.24.31-.74.62-1.48.93-2.22.24-.57.35-1.08.35-1.52,0-.44-.1-.83-.3-1.16-.19-.33-.47-.62-.84-.87-.37-.24-.8-.46-1.3-.63-.57-.2-1.17-.31-1.82-.32-.65-.01-1.28.02-1.9.1-.62.08-1.21.19-1.76.32-.56.13-1.02.24-1.39.32-.22-.07-.45-.14-.67-.22.34-1,.68-2.01,1.02-3.01.55,0,1.1,0,1.67-.01.57,0,1.16.03,1.77.09.61.06,1.25.16,1.92.3.67.14,1.38.34,2.14.6.82.29,1.58.65,2.3,1.08.71.43,1.29.95,1.73,1.56.44.61.69,1.31.77,2.12.08.81-.1,1.73-.54,2.77-1.19,2.77-2.35,5.54-3.49,8.32-.08.19-.1.38-.08.57.02.19.08.36.18.53.1.16.23.31.39.44.16.13.33.23.51.3.11.04.24.07.37.1.13.02.28.04.44.04.16,0,.32,0,.47,0,.16,0,.31-.02.45-.02.08.03.17.06.25.1-.17.42-.35.84-.52,1.26-.2.05-.46.1-.78.15-.32.05-.65.09-1,.11-.35.02-.7.03-1.05.01-.35-.02-.65-.07-.9-.16-.49-.18-.9-.4-1.22-.64-.32-.25-.57-.53-.73-.84-.16-.32-.23-.67-.22-1.06.01-.39.11-.82.3-1.29-.07-.03-.14-.05-.21-.08Zm2.21-5.75c-1.13-.41-2.18-.73-3.16-.96-.98-.24-1.85-.34-2.61-.32-.76.02-1.41.2-1.94.52-.53.32-.93.84-1.19,1.54-.21.57-.29,1.08-.23,1.52.05.44.19.83.41,1.15.22.32.5.59.83.81.34.22.68.39,1.04.51.35.12.75.22,1.19.29.44.07.88.11,1.33.1.45,0,.89-.05,1.33-.14.44-.09.83-.25,1.19-.46.6-1.52,1.21-3.04,1.82-4.56Z"/><path class="cls-4" d="m157.62,64.8c1.37-.21,2.69-.41,3.94-.58,1.25-.17,2.43-.35,3.53-.52,1.1-.17,2.12-.37,3.06-.59.94-.22,1.79-.48,2.55-.8.76-.32,1.42-.69,1.98-1.14.56-.45,1.02-.99,1.37-1.62.31-.57.51-1.1.62-1.6.1-.49.09-.96-.04-1.39-.12-.43-.37-.83-.73-1.19-.36-.36-.84-.7-1.46-.99-.62-.3-1.32-.5-2.09-.59-.77-.09-1.52-.12-2.26-.1-.74.02-1.43.08-2.07.17-.64.09-1.15.17-1.53.24-.24-.11-.48-.22-.72-.33.46-1.03.93-2.06,1.39-3.08.33,0,.77.02,1.31.05.54.02,1.14.09,1.81.19.67.1,1.39.26,2.16.47.77.21,1.56.51,2.36.9,1.08.52,2.02,1.12,2.83,1.78.81.67,1.44,1.38,1.88,2.14.45.76.69,1.54.73,2.35.04.81-.18,1.63-.63,2.45-.38.68-.86,1.26-1.45,1.72-.58.47-1.25.85-2,1.15-.75.3-1.58.55-2.49.73-.91.18-1.88.33-2.92.45-1.04.12-2.14.24-3.29.34-1.15.11-2.36.24-3.62.39-.04.07-.07.15-.11.22.9.31,1.79.62,2.68.94,2.1,1,4.19,2.02,6.25,3.07.25.12.46.17.65.13.19-.04.35-.15.5-.33.46-.59.93-1.19,1.4-1.78.5.26.99.51,1.49.77-.92,1.7-1.83,3.41-2.73,5.12-4.96-2.58-10.03-5.02-15.21-7.33.28-.61.56-1.22.85-1.82Z"/></svg>