<?xml version="1.0" encoding="UTF-8"?><svg id="Layer_1" xmlns="http://www.w3.org/2000/svg" width="1242" height="2208" xmlns:xlink="http://www.w3.org/1999/xlink" viewBox="0 0 1242 2208"><defs><style>.cls-1{fill:#9eb9b9;}.cls-2{fill:#b8cb96;}.cls-3{fill:#88a18f;}.cls-4{clip-path:url(#clippath-2);}.cls-5{fill:#3f3625;}.cls-6{fill:#c9b792;}.cls-7{fill:#6d614d;}.cls-8{fill:#7d7056;}.cls-9{clip-path:url(#clippath-1);}.cls-10{fill:#abc7ab;}.cls-11{clip-path:url(#clippath);}.cls-12{fill:none;}.cls-13{clip-path:url(#clippath-3);}.cls-14{fill:#93aaa8;}.cls-15{fill:#c1ad8b;}.cls-16{fill:#6d614b;}.cls-17{fill:#352c22;}.cls-18{fill:#fffaf0;}.cls-19{fill:#2d261b;}.cls-20{fill:#dbc6a2;}</style><clipPath id="clippath"><rect class="cls-12" x="-379" y="1650" width="2065" height="570"/></clipPath><clipPath id="clippath-1"><rect class="cls-12" x="-325" y="-43" width="1986" height="1693"/></clipPath><clipPath id="clippath-2"><rect class="cls-12" x="387" y="709" width="689.4" height="1225.93"/></clipPath><clipPath id="clippath-3"><rect class="cls-12" x="387" y="709" width="689.4" height="1225.93"/></clipPath></defs><g id="Artwork_2"><g class="cls-11"><rect class="cls-1" x="-379" y="1650" width="2065" height="570"/></g></g><g id="Artwork_3"><g class="cls-9"><rect class="cls-18" x="-325" y="-43" width="1986" height="1693"/></g></g><path class="cls-16" d="m187.57,274.06h-5.63l-13.69-79.89c-.08-.71-.34-1.4-.78-2.06-.44-.67-1.01-1.12-1.72-1.38l-6.56-2.31.88-4h31.38l-.94,4-10.56,3.13,9.81,57.82,1.12,8.38h.69l39.19-65.89-10.5-3.44.94-4h27.32l-.94,4-5.81,2.44c-.79.29-1.56.75-2.31,1.38-.75.62-1.35,1.31-1.81,2.06l-39.76,65.2-10.31,14.56Z"/><path class="cls-16" d="m261.21,274.12c-1.29,0-2.78-.16-4.47-.47-1.69-.31-3.42-.84-5.19-1.59-1.77-.75-3.5-1.78-5.19-3.09-1.69-1.31-3.2-2.95-4.53-4.91-1.33-1.96-2.41-4.29-3.22-7-.81-2.71-1.22-5.85-1.22-9.44,0-3.33.38-6.67,1.16-10,.77-3.33,1.91-6.54,3.41-9.63,1.5-3.08,3.32-5.96,5.47-8.63,2.15-2.67,4.58-4.98,7.31-6.94,2.73-1.96,5.74-3.5,9.03-4.63,3.29-1.12,6.85-1.69,10.69-1.69,2.12,0,4.29.25,6.5.75,2.21.5,4.21,1.29,6,2.38,1.79,1.08,3.25,2.53,4.38,4.34,1.12,1.81,1.69,4.01,1.69,6.59s-.46,4.9-1.38,6.94c-.92,2.04-2.18,3.86-3.78,5.44-1.6,1.58-3.49,2.93-5.66,4.03-2.17,1.1-4.48,2.02-6.94,2.75-2.46.73-5.01,1.26-7.66,1.59-2.65.33-5.26.5-7.84.5-.79,0-1.67-.04-2.63-.12-.96-.08-1.9-.17-2.81-.25-.92-.08-1.79-.18-2.63-.28-.83-.1-1.5-.2-2-.28-.08.42-.15.83-.19,1.25-.04.42-.07.83-.09,1.25-.02.42-.04.81-.06,1.19-.02.38-.03.73-.03,1.06,0,2.88.31,5.56.94,8.06.62,2.5,1.65,4.68,3.06,6.53,1.42,1.85,3.25,3.31,5.5,4.38s5,1.59,8.25,1.59c1.92,0,3.73-.23,5.44-.69,1.71-.46,3.4-1.09,5.06-1.91,1.67-.81,3.36-1.77,5.09-2.88,1.73-1.1,3.55-2.3,5.47-3.59h2.06l-.88,7.19c-2.25,1.5-4.41,2.87-6.47,4.09-2.06,1.23-4.19,2.3-6.38,3.22-2.19.92-4.51,1.62-6.97,2.12-2.46.5-5.23.75-8.31.75Zm-2.38-38.32c3.63.04,6.81-.26,9.56-.91s5.05-1.63,6.91-2.94c1.85-1.31,3.24-2.98,4.16-5,.92-2.02,1.38-4.41,1.38-7.16,0-1.17-.23-2.23-.69-3.19-.46-.96-1.12-1.77-1.97-2.44-.85-.67-1.89-1.19-3.09-1.56-1.21-.38-2.58-.56-4.13-.56-1.92,0-3.89.54-5.91,1.62-2.02,1.08-3.95,2.64-5.78,4.66-1.83,2.02-3.49,4.48-4.97,7.38-1.48,2.9-2.64,6.16-3.47,9.78,1,.04,1.9.09,2.69.16.79.06,1.5.1,2.13.12.62.02,1.21.03,1.75.03h1.44Z"/><path class="cls-16" d="m315.78,273.75c-1.79,0-3.35-.28-4.69-.84-1.33-.56-2.45-1.28-3.34-2.16-.9-.88-1.56-1.83-2-2.88-.44-1.04-.66-2.04-.66-3,0-1.21.13-2.59.41-4.16.27-1.56.59-3.18.97-4.84l14.69-66.26c.21-1.04.11-1.83-.28-2.38-.4-.54-1.07-1-2.03-1.38l-7.5-3.06v-3.5l24.19-2.38-16.44,73.89c-.21,1.04-.43,2.08-.66,3.13-.23,1.04-.44,2.03-.62,2.97-.19.94-.32,1.79-.41,2.56-.08.77-.12,1.39-.12,1.84,0,.54.12,1.1.38,1.69.25.58.65,1.12,1.19,1.62.54.5,1.23.92,2.06,1.25.83.33,1.83.5,3,.5.33,0,.8-.04,1.41-.12.6-.08,1.27-.21,2-.38.73-.17,1.48-.36,2.25-.59.77-.23,1.49-.47,2.16-.72h1.69v4.56c-1.42.79-2.94,1.48-4.56,2.06-1.62.58-3.25,1.07-4.88,1.47-1.63.4-3.15.68-4.56.84-1.42.17-2.63.25-3.63.25Z"/><path class="cls-16" d="m390.16,273.75c-1.54,0-2.84-.22-3.91-.66s-1.98-1.06-2.75-1.88c-.77-.81-1.45-1.78-2.03-2.91-.58-1.12-1.17-2.4-1.75-3.81l-10.56-24.07-10.06,7.81-2.56,12.13c-.12,1.08-.21,2.18-.25,3.28-.04,1.1-.07,2.19-.09,3.25-.02,1.06-.03,2.11-.03,3.13v2.78h-13.94l18.5-83.2c.17-.88.06-1.62-.31-2.22-.38-.6-1.02-1.11-1.94-1.53l-6.5-3.06v-3.5l23.07-2.38-14.5,65.45c3.21-3.54,6.23-6.83,9.06-9.88,2.83-3.04,5.42-5.81,7.75-8.31,2.33-2.5,4.44-4.7,6.31-6.59,1.88-1.9,3.46-3.43,4.75-4.59,1.21-1.08,2.29-2.01,3.25-2.78.96-.77,1.92-1.42,2.88-1.94.96-.52,1.96-.9,3-1.12,1.04-.23,2.25-.34,3.63-.34.63,0,1.19.01,1.69.03.5.02.98.04,1.44.06.46.02,1,.07,1.63.16.62.08,1.17.19,1.63.31l-1.13,12.13h-2.31c-.38-.08-.89-.18-1.53-.28-.65-.1-1.37-.2-2.16-.28-.79-.08-1.62-.16-2.47-.22-.85-.06-1.62-.09-2.28-.09-.92,0-2.02.3-3.31.91-1.29.6-2.72,1.49-4.28,2.66-1.56,1.17-3.2,2.56-4.91,4.19-1.71,1.62-3.44,3.48-5.19,5.56l12.81,29.75c.25.67.59,1.28,1.03,1.84s.95,1.06,1.53,1.5c.58.44,1.26.78,2.03,1.03.77.25,1.66.38,2.66.38.33,0,.76-.03,1.28-.09.52-.06,1.08-.17,1.69-.31.6-.15,1.23-.32,1.88-.53.65-.21,1.3-.46,1.97-.75h1.69v4.56c-1.42.79-2.88,1.47-4.38,2.03-1.5.56-2.98,1.02-4.44,1.38-1.46.35-2.84.61-4.16.78-1.31.17-2.45.25-3.41.25Z"/><path class="cls-16" d="m440.79,274.5c-4.08,0-7.76-.64-11.03-1.91-3.27-1.27-6.03-3.07-8.28-5.41-2.25-2.33-3.98-5.17-5.19-8.5-1.21-3.33-1.81-7.06-1.81-11.19,0-3.71.41-7.3,1.22-10.78.81-3.48,1.97-6.75,3.47-9.81,1.5-3.06,3.3-5.87,5.41-8.41,2.1-2.54,4.47-4.73,7.1-6.56s5.47-3.26,8.53-4.28c3.06-1.02,6.3-1.53,9.72-1.53,4.58,0,8.53.73,11.85,2.19,3.31,1.46,6.03,3.43,8.16,5.91,2.13,2.48,3.69,5.38,4.69,8.69,1,3.31,1.5,6.83,1.5,10.53s-.41,7.16-1.22,10.6c-.81,3.44-1.96,6.69-3.44,9.75-1.48,3.06-3.28,5.87-5.41,8.41-2.13,2.54-4.49,4.72-7.1,6.53-2.6,1.81-5.44,3.23-8.5,4.25s-6.28,1.53-9.66,1.53Zm.88-5.75c2.38,0,4.57-.54,6.6-1.63,2.02-1.08,3.83-2.53,5.44-4.34,1.6-1.81,3.02-3.94,4.25-6.38,1.23-2.44,2.25-5.01,3.06-7.72.81-2.71,1.43-5.48,1.84-8.31.42-2.83.62-5.58.62-8.25s-.25-5.35-.75-7.81-1.31-4.6-2.44-6.44c-1.13-1.83-2.62-3.28-4.47-4.34-1.85-1.06-4.16-1.59-6.91-1.59-2.54,0-4.84.58-6.91,1.75-2.06,1.17-3.91,2.71-5.53,4.63-1.63,1.92-3.02,4.12-4.19,6.63-1.17,2.5-2.14,5.12-2.91,7.84-.77,2.73-1.34,5.46-1.72,8.19-.38,2.73-.56,5.28-.56,7.66,0,2.62.23,5.15.69,7.56.46,2.42,1.25,4.55,2.38,6.41,1.13,1.86,2.61,3.34,4.47,4.47,1.85,1.12,4.2,1.69,7.03,1.69Z"/><path class="cls-16" d="m578.76,273.75c-1.75,0-3.25-.28-4.5-.84-1.25-.56-2.29-1.28-3.13-2.16-.83-.88-1.45-1.83-1.84-2.88-.4-1.04-.59-2.04-.59-3-.04-1,.06-2.33.31-4,.25-1.67.58-3.38,1-5.13l5.56-23.5c.33-1.58.61-3.1.84-4.56.23-1.46.34-2.79.34-4,0-1.42-.19-2.69-.56-3.81s-.98-2.07-1.81-2.84c-.83-.77-1.93-1.36-3.28-1.78-1.35-.42-2.99-.62-4.91-.62-1.17,0-2.41.12-3.72.34-1.31.23-2.65.6-4,1.12-1.35.52-2.71,1.2-4.06,2.03-1.35.83-2.62,1.85-3.78,3.06l-8.75,39.19c-.08,1-.16,2.05-.22,3.16s-.1,2.21-.12,3.31c-.02,1.1-.03,2.17-.03,3.19v2.78h-13.94l9.06-40.57c.33-1.54.61-3.09.84-4.66.23-1.56.34-2.95.34-4.16,0-1.42-.18-2.67-.53-3.75-.35-1.08-.95-2-1.78-2.75-.83-.75-1.91-1.32-3.22-1.72-1.31-.4-2.93-.59-4.84-.59-1.25,0-2.56.12-3.94.34-1.38.23-2.75.6-4.13,1.12-1.38.52-2.72,1.19-4.03,2-1.31.81-2.53,1.8-3.66,2.97l-8.75,39.32c-.08,1-.16,2.05-.22,3.16s-.1,2.21-.12,3.31c-.02,1.1-.03,2.17-.03,3.19v2.78h-13.94l11.69-52.45c.21-.96.1-1.73-.31-2.31-.42-.58-1.12-1.06-2.13-1.44l-6.5-2.75v-3.38l22.57-3.81-2.06,10.25h.44c2.29-2.33,4.45-4.21,6.47-5.63,2.02-1.42,3.94-2.51,5.75-3.28,1.81-.77,3.54-1.28,5.19-1.53,1.65-.25,3.24-.38,4.78-.38,2,0,3.89.23,5.66.69,1.77.46,3.35,1.17,4.75,2.12,1.4.96,2.55,2.21,3.47,3.75.92,1.54,1.52,3.42,1.81,5.63,2.63-2.83,5.03-5.06,7.22-6.69,2.19-1.62,4.2-2.84,6.03-3.66,1.83-.81,3.54-1.32,5.13-1.53,1.58-.21,3.1-.31,4.56-.31,2.25,0,4.33.3,6.25.91,1.92.6,3.58,1.52,5,2.75,1.42,1.23,2.53,2.78,3.34,4.66s1.22,4.11,1.22,6.69c0,1-.07,2.07-.22,3.22-.15,1.15-.37,2.3-.66,3.47l-4.44,19c-.33,1.29-.66,2.7-.97,4.22-.31,1.52-.59,2.97-.84,4.34s-.46,2.61-.62,3.69c-.17,1.08-.25,1.85-.25,2.31,0,.54.1,1.1.31,1.69.21.58.54,1.14,1,1.66.46.52,1.09.94,1.91,1.25.81.31,1.8.47,2.97.47.33,0,.75-.03,1.25-.09s1.04-.17,1.63-.31c.58-.15,1.21-.32,1.88-.53.67-.21,1.31-.46,1.94-.75h1.69v4.56c-1.38.79-2.84,1.47-4.41,2.03-1.56.56-3.09,1.02-4.59,1.38-1.5.35-2.93.61-4.28.78-1.35.17-2.51.25-3.47.25Z"/><path class="cls-16" d="m695.46,273.75c-1.75,0-3.25-.28-4.5-.84-1.25-.56-2.29-1.28-3.13-2.16s-1.45-1.83-1.84-2.88c-.4-1.04-.59-2.04-.59-3-.04-1,.06-2.33.31-4,.25-1.67.58-3.38,1-5.13l5.56-23.5c.33-1.58.61-3.1.84-4.56.23-1.46.34-2.79.34-4,0-1.42-.19-2.69-.56-3.81s-.98-2.07-1.81-2.84c-.83-.77-1.93-1.36-3.28-1.78-1.35-.42-2.99-.62-4.91-.62-1.17,0-2.41.12-3.72.34-1.31.23-2.65.6-4,1.12-1.35.52-2.71,1.2-4.06,2.03-1.36.83-2.62,1.85-3.78,3.06l-8.75,39.19c-.08,1-.16,2.05-.22,3.16s-.11,2.21-.12,3.31c-.02,1.1-.03,2.17-.03,3.19v2.78h-13.94l9.06-40.57c.33-1.54.62-3.09.84-4.66.23-1.56.34-2.95.34-4.16,0-1.42-.18-2.67-.53-3.75-.35-1.08-.95-2-1.78-2.75-.83-.75-1.91-1.32-3.22-1.72-1.31-.4-2.93-.59-4.84-.59-1.25,0-2.56.12-3.94.34-1.38.23-2.75.6-4.12,1.12-1.38.52-2.72,1.19-4.03,2-1.31.81-2.53,1.8-3.66,2.97l-8.75,39.32c-.08,1-.16,2.05-.22,3.16s-.1,2.21-.12,3.31c-.02,1.1-.03,2.17-.03,3.19v2.78h-13.94l11.69-52.45c.21-.96.1-1.73-.31-2.31-.42-.58-1.12-1.06-2.13-1.44l-6.5-2.75v-3.38l22.57-3.81-2.06,10.25h.44c2.29-2.33,4.45-4.21,6.47-5.63,2.02-1.42,3.94-2.51,5.75-3.28,1.81-.77,3.54-1.28,5.19-1.53,1.64-.25,3.24-.38,4.78-.38,2,0,3.89.23,5.66.69,1.77.46,3.35,1.17,4.75,2.12,1.4.96,2.55,2.21,3.47,3.75.92,1.54,1.52,3.42,1.81,5.63,2.63-2.83,5.03-5.06,7.22-6.69,2.19-1.62,4.2-2.84,6.03-3.66,1.83-.81,3.54-1.32,5.13-1.53,1.58-.21,3.1-.31,4.56-.31,2.25,0,4.33.3,6.25.91,1.92.6,3.58,1.52,5,2.75,1.42,1.23,2.53,2.78,3.34,4.66s1.22,4.11,1.22,6.69c0,1-.07,2.07-.22,3.22-.15,1.15-.37,2.3-.66,3.47l-4.44,19c-.33,1.29-.66,2.7-.97,4.22-.31,1.52-.59,2.97-.84,4.34s-.46,2.61-.62,3.69c-.17,1.08-.25,1.85-.25,2.31,0,.54.1,1.1.31,1.69s.54,1.14,1,1.66c.46.52,1.09.94,1.91,1.25.81.31,1.8.47,2.97.47.33,0,.75-.03,1.25-.09s1.04-.17,1.62-.31c.58-.15,1.21-.32,1.88-.53.67-.21,1.31-.46,1.94-.75h1.69v4.56c-1.38.79-2.84,1.47-4.41,2.03s-3.09,1.02-4.59,1.38c-1.5.35-2.93.61-4.28.78-1.35.17-2.51.25-3.47.25Z"/><path class="cls-16" d="m744.47,274.12c-1.29,0-2.78-.16-4.47-.47s-3.42-.84-5.19-1.59c-1.77-.75-3.5-1.78-5.19-3.09-1.69-1.31-3.2-2.95-4.53-4.91-1.33-1.96-2.41-4.29-3.22-7-.81-2.71-1.22-5.85-1.22-9.44,0-3.33.38-6.67,1.16-10,.77-3.33,1.91-6.54,3.41-9.63,1.5-3.08,3.32-5.96,5.47-8.63s4.58-4.98,7.31-6.94c2.73-1.96,5.74-3.5,9.03-4.63,3.29-1.12,6.86-1.69,10.69-1.69,2.13,0,4.29.25,6.5.75s4.21,1.29,6,2.38c1.79,1.08,3.25,2.53,4.38,4.34s1.69,4.01,1.69,6.59-.46,4.9-1.38,6.94c-.92,2.04-2.18,3.86-3.78,5.44-1.61,1.58-3.49,2.93-5.66,4.03-2.17,1.1-4.48,2.02-6.94,2.75-2.46.73-5.01,1.26-7.66,1.59-2.65.33-5.26.5-7.85.5-.79,0-1.67-.04-2.62-.12-.96-.08-1.9-.17-2.81-.25-.92-.08-1.79-.18-2.63-.28-.83-.1-1.5-.2-2-.28-.08.42-.15.83-.19,1.25-.04.42-.07.83-.09,1.25-.02.42-.04.81-.06,1.19s-.03.73-.03,1.06c0,2.88.31,5.56.94,8.06.62,2.5,1.65,4.68,3.06,6.53,1.42,1.85,3.25,3.31,5.5,4.38s5,1.59,8.25,1.59c1.92,0,3.73-.23,5.44-.69,1.71-.46,3.4-1.09,5.06-1.91,1.67-.81,3.37-1.77,5.09-2.88,1.73-1.1,3.55-2.3,5.47-3.59h2.06l-.88,7.19c-2.25,1.5-4.41,2.87-6.47,4.09-2.06,1.23-4.19,2.3-6.38,3.22-2.19.92-4.51,1.62-6.97,2.12s-5.23.75-8.31.75Zm-2.38-38.32c3.62.04,6.81-.26,9.56-.91s5.05-1.63,6.91-2.94c1.85-1.31,3.24-2.98,4.16-5,.92-2.02,1.38-4.41,1.38-7.16,0-1.17-.23-2.23-.69-3.19-.46-.96-1.12-1.77-1.97-2.44-.86-.67-1.89-1.19-3.1-1.56s-2.58-.56-4.12-.56c-1.92,0-3.89.54-5.91,1.62-2.02,1.08-3.95,2.64-5.78,4.66s-3.49,4.48-4.97,7.38c-1.48,2.9-2.64,6.16-3.47,9.78,1,.04,1.9.09,2.69.16.79.06,1.5.1,2.12.12.62.02,1.21.03,1.75.03h1.44Z"/><path class="cls-16" d="m838.05,273.75c-1.71,0-3.2-.28-4.47-.84s-2.31-1.28-3.12-2.16-1.43-1.83-1.84-2.88c-.42-1.04-.63-2.04-.63-3s.12-2.34.38-4.03c.25-1.69.58-3.38,1-5.09l5.06-21.63c.21-.83.42-1.72.62-2.66.21-.94.4-1.85.56-2.75.17-.9.3-1.78.41-2.66.1-.88.16-1.67.16-2.38,0-1.46-.21-2.75-.62-3.88-.42-1.12-1.06-2.06-1.94-2.81-.88-.75-2.02-1.33-3.44-1.75-1.42-.42-3.13-.62-5.13-.62-1.21,0-2.52.12-3.94.34-1.42.23-2.83.6-4.25,1.12-1.42.52-2.8,1.19-4.16,2-1.35.81-2.59,1.8-3.72,2.97l-8.69,39.32c-.12,1.04-.21,2.12-.25,3.22-.04,1.1-.07,2.2-.09,3.28-.02,1.08-.03,2.14-.03,3.16v2.78h-14l11.63-52.45c.17-.96.05-1.73-.34-2.31-.4-.58-1.09-1.06-2.09-1.44l-6.5-2.75v-3.38l22.5-3.81-2.13,10.25h.5c2.29-2.5,4.46-4.47,6.5-5.91,2.04-1.44,4-2.52,5.88-3.25,1.88-.73,3.68-1.19,5.41-1.38s3.41-.28,5.03-.28c2.21,0,4.29.29,6.25.88,1.96.58,3.66,1.48,5.09,2.69,1.44,1.21,2.57,2.74,3.41,4.59.83,1.85,1.25,4.05,1.25,6.59,0,1.04-.08,2.18-.25,3.41-.17,1.23-.38,2.41-.62,3.53l-5,21.07c-.29,1.21-.56,2.47-.81,3.78-.25,1.31-.48,2.55-.69,3.72-.21,1.17-.38,2.2-.5,3.09-.12.9-.19,1.53-.19,1.91,0,.54.1,1.1.31,1.69.21.58.55,1.14,1.03,1.66.48.52,1.11.94,1.91,1.25.79.31,1.77.47,2.94.47.33,0,.76-.03,1.28-.09.52-.06,1.07-.17,1.66-.31.58-.15,1.2-.32,1.84-.53.65-.21,1.3-.46,1.97-.75h1.69v4.56c-1.42.79-2.9,1.47-4.44,2.03s-3.07,1.02-4.59,1.38c-1.52.35-2.96.61-4.31.78-1.35.17-2.51.25-3.47.25Z"/><path class="cls-7" d="m644.19,426.64l9.31-2.11c.47-.13.85-.36,1.15-.69.3-.33.45-.78.45-1.35v-25.12l.47-5.44-.63-.31-11.78,2.39v-3.4l16.71-7.51h3.44c-.05.91-.1,1.92-.14,3.01s-.07,2.22-.1,3.37c-.03,1.15-.05,2.29-.06,3.42-.01,1.13-.02,2.21-.02,3.23v26.38c0,.6.14,1.06.41,1.37.27.31.65.54,1.12.67l8.88,2.11v2.94h-29.23v-2.94Z"/><path class="cls-7" d="m684.22,424.69c0-.83.16-1.61.47-2.33.31-.72.73-1.35,1.25-1.9.52-.55,1.14-.97,1.86-1.27.72-.3,1.51-.45,2.37-.45.81,0,1.58.15,2.31.45.73.3,1.37.72,1.92,1.27.55.55.97,1.18,1.27,1.9.3.72.45,1.49.45,2.33s-.15,1.61-.45,2.33c-.3.72-.72,1.33-1.27,1.84-.55.51-1.19.92-1.92,1.23-.73.31-1.5.47-2.31.47-.86,0-1.65-.16-2.37-.47-.72-.31-1.34-.72-1.86-1.23-.52-.51-.94-1.12-1.25-1.84-.31-.72-.47-1.49-.47-2.33Z"/><path class="cls-7" d="m731.73,412.36h4.62l1.64,8.1c.05.37.29.74.7,1.12.42.38.77.66,1.06.84.73.5,1.53.97,2.39,1.41.86.44,1.75.84,2.68,1.17.93.34,1.89.61,2.9.82,1,.21,2.03.31,3.07.31,2.01,0,3.83-.23,5.46-.69,1.63-.46,3.01-1.12,4.13-1.98,1.12-.86,1.98-1.9,2.58-3.13.6-1.23.9-2.61.9-4.15,0-2.3-.69-4.21-2.07-5.73s-3.23-2.77-5.56-3.74c-1.12-.47-2.24-.89-3.35-1.27-1.11-.38-2.21-.76-3.31-1.13-1.1-.38-2.18-.75-3.25-1.12-1.07-.37-2.11-.76-3.13-1.17-3.16-1.3-5.64-3.14-7.44-5.52-1.8-2.37-2.7-5.24-2.7-8.61,0-2.24.49-4.33,1.47-6.26.98-1.93,2.32-3.6,4.03-5.01,1.71-1.41,3.72-2.5,6.03-3.29s4.79-1.17,7.46-1.17c1.59,0,3.14.07,4.64.21,1.5.14,2.94.34,4.32.59,1.38.25,2.72.53,4.01.84,1.29.31,2.54.61,3.74.9v14.36h-4.58l-1.57-7.67c-.05-.36-.28-.72-.69-1.08-.4-.35-.76-.63-1.08-.84-.47-.34-1-.66-1.6-.96-.6-.3-1.27-.57-2-.8-.73-.23-1.51-.42-2.35-.55-.84-.13-1.71-.2-2.62-.2-1.85,0-3.5.21-4.95.63-1.45.42-2.67.99-3.68,1.72s-1.77,1.58-2.29,2.56c-.52.98-.78,2.04-.78,3.19,0,1.02.12,2.01.37,2.97.25.97.68,1.88,1.29,2.74.61.86,1.43,1.66,2.46,2.41s2.34,1.4,3.93,1.98c1.04.37,2.07.72,3.09,1.08,1.02.35,2.04.71,3.07,1.08,1.03.37,2.08.75,3.15,1.15,1.07.4,2.2.85,3.41,1.35,1.3.55,2.58,1.21,3.83,2,1.25.78,2.38,1.74,3.39,2.88,1,1.14,1.81,2.47,2.41,3.99.6,1.53.9,3.32.9,5.38s-.41,4.22-1.23,6.24c-.82,2.02-2.11,3.82-3.87,5.38-1.76,1.57-4.03,2.82-6.81,3.78-2.78.95-6.1,1.43-9.96,1.43-1.36,0-2.77-.1-4.25-.31-1.47-.21-2.98-.48-4.52-.82-1.54-.34-3.09-.72-4.64-1.15-1.55-.43-3.1-.85-4.64-1.27l-.23-14.99Z"/><path class="cls-7" d="m819.8,419.36v4.5c-.96.78-2.09,1.57-3.38,2.37-1.29.8-2.69,1.51-4.21,2.13-1.51.63-3.12,1.14-4.81,1.53-1.7.39-3.43.59-5.21.59-2.84,0-5.5-.47-7.96-1.41-2.46-.94-4.6-2.33-6.4-4.17s-3.22-4.11-4.25-6.81c-1.03-2.7-1.55-5.81-1.55-9.33,0-3.13.49-6.06,1.47-8.79.98-2.73,2.36-5.1,4.15-7.12s3.93-3.61,6.42-4.75c2.49-1.15,5.24-1.72,8.24-1.72,2.76,0,5.24.45,7.42,1.35,2.18.9,4.02,2.11,5.54,3.62,1.51,1.51,2.67,3.29,3.46,5.32s1.19,4.16,1.19,6.38c0,.26,0,.57-.02.94-.01.37-.03.75-.06,1.15-.03.4-.06.8-.12,1.17-.05.38-.1.7-.16.96h-29.39c0,5.74,1.29,10.06,3.88,12.95,2.58,2.9,6.22,4.34,10.92,4.34,1.51,0,2.96-.18,4.32-.53,1.37-.35,2.63-.79,3.8-1.31,1.16-.52,2.22-1.09,3.17-1.7.95-.61,1.77-1.17,2.45-1.66h1.1Zm-8.22-16.16c0-1.9-.18-3.63-.53-5.19-.35-1.55-.91-2.88-1.68-3.97s-1.77-1.94-3.01-2.52c-1.24-.59-2.75-.88-4.52-.88-1.56,0-3.01.28-4.32.84-1.32.56-2.48,1.38-3.48,2.47-1,1.08-1.82,2.4-2.45,3.95s-1.02,3.32-1.17,5.3h21.17Z"/><path class="cls-7" d="m829.68,426.72l4.77-1.53c.39-.13.74-.35,1.06-.67.31-.31.47-.74.47-1.29v-27.63c0-.55-.16-.98-.49-1.29s-.72-.56-1.19-.74l-4.62-1.92v-2.82l13.38-2.15v6.69h.51c1.12-1.51,2.25-2.73,3.38-3.64,1.13-.91,2.27-1.62,3.4-2.11s2.25-.83,3.35-1c1.1-.17,2.19-.25,3.29-.25,1.38,0,2.7.14,3.95.43s2.41.74,3.48,1.37c1.07.63,2.01,1.45,2.84,2.47s1.48,2.24,1.98,3.68c1.41-1.88,2.75-3.35,4.01-4.4,1.26-1.06,2.47-1.85,3.62-2.39,1.15-.53,2.25-.86,3.31-.98,1.06-.12,2.08-.18,3.07-.18,1.8,0,3.5.27,5.11.8,1.6.54,3,1.38,4.19,2.52,1.19,1.15,2.13,2.62,2.84,4.42.7,1.8,1.06,3.95,1.06,6.46v22.54c0,.63.15,1.08.45,1.37.3.29.67.51,1.12.67l4.23,1.57v2.86h-19.18v-2.86l4.03-1.53c.44-.18.81-.42,1.12-.72.3-.3.45-.75.45-1.35v-19.18c0-1.85-.11-3.5-.33-4.93-.22-1.43-.65-2.65-1.27-3.64-.63-.99-1.52-1.75-2.68-2.27-1.16-.52-2.67-.78-4.52-.78-.78,0-1.61.07-2.49.2-.87.13-1.75.35-2.62.67s-1.71.73-2.5,1.25c-.8.52-1.51,1.19-2.13,2v26.69c0,.63.15,1.08.45,1.35s.67.5,1.12.68l3.56,1.57v2.86h-18.39v-2.86l3.91-1.53c.47-.21.85-.45,1.13-.72s.43-.72.43-1.35v-19.18c0-1.85-.11-3.5-.33-4.93-.22-1.43-.64-2.65-1.25-3.64-.61-.99-1.49-1.75-2.64-2.27-1.15-.52-2.65-.78-4.5-.78-.83,0-1.7.07-2.6.2-.9.13-1.79.35-2.66.65-.87.3-1.7.71-2.48,1.23-.78.52-1.47,1.17-2.07,1.96v26.89c0,.55.16.97.49,1.25.33.29.68.51,1.08.67l3.64,1.57v2.86h-19.29v-2.86Z"/><path class="cls-7" d="m948.55,419.36v4.5c-.96.78-2.09,1.57-3.38,2.37-1.29.8-2.69,1.51-4.21,2.13-1.51.63-3.12,1.14-4.81,1.53-1.7.39-3.43.59-5.21.59-2.84,0-5.5-.47-7.96-1.41-2.46-.94-4.6-2.33-6.4-4.17s-3.22-4.11-4.25-6.81c-1.03-2.7-1.55-5.81-1.55-9.33,0-3.13.49-6.06,1.47-8.79.98-2.73,2.36-5.1,4.15-7.12s3.93-3.61,6.42-4.75c2.49-1.15,5.24-1.72,8.24-1.72,2.76,0,5.24.45,7.42,1.35,2.18.9,4.02,2.11,5.54,3.62,1.51,1.51,2.67,3.29,3.46,5.32s1.19,4.16,1.19,6.38c0,.26,0,.57-.02.94-.01.37-.03.75-.06,1.15-.03.4-.06.8-.12,1.17-.05.38-.1.7-.16.96h-29.39c0,5.74,1.29,10.06,3.88,12.95,2.58,2.9,6.22,4.34,10.92,4.34,1.51,0,2.96-.18,4.32-.53,1.37-.35,2.63-.79,3.8-1.31,1.16-.52,2.22-1.09,3.17-1.7.95-.61,1.77-1.17,2.45-1.66h1.1Zm-8.22-16.16c0-1.9-.18-3.63-.53-5.19-.35-1.55-.91-2.88-1.68-3.97s-1.77-1.94-3.01-2.52c-1.24-.59-2.75-.88-4.52-.88-1.56,0-3.01.28-4.32.84-1.32.56-2.48,1.38-3.48,2.47-1,1.08-1.82,2.4-2.45,3.95s-1.02,3.32-1.17,5.3h21.17Z"/><path class="cls-7" d="m959.96,417.8h4.62l1.25,3.8c.18.52.44.97.76,1.33.33.37.67.65,1.04.86.55.31,1.13.59,1.76.82.62.23,1.28.44,1.98.63.69.18,1.4.33,2.13.43.73.1,1.46.16,2.19.16,1.07,0,2.16-.12,3.27-.35,1.11-.23,2.12-.62,3.03-1.15.91-.53,1.65-1.21,2.21-2.04.56-.82.84-1.81.84-2.95,0-.96-.15-1.79-.45-2.47-.3-.68-.74-1.27-1.31-1.76-.57-.5-1.28-.92-2.11-1.27-.84-.35-1.79-.69-2.86-1-1.49-.42-2.96-.83-4.4-1.25-1.45-.42-2.88-.83-4.29-1.25-1.49-.44-2.79-1.03-3.91-1.76-1.12-.73-2.07-1.58-2.84-2.56s-1.35-2.05-1.74-3.21c-.39-1.16-.59-2.39-.59-3.7,0-1.85.48-3.55,1.43-5.11.95-1.55,2.23-2.9,3.83-4.03,1.61-1.14,3.45-2.02,5.54-2.64,2.09-.63,4.28-.94,6.58-.94,1.2,0,2.33.04,3.4.12,1.07.08,2.09.2,3.07.37.98.17,1.93.37,2.86.59.93.22,1.88.48,2.88.76l.16,10.14h-4.66l-1.29-4.07c-.16-.42-.41-.8-.74-1.13-.34-.34-.69-.6-1.06-.78-.91-.44-1.9-.77-2.97-.98-1.07-.21-2.19-.31-3.37-.31s-2.3.12-3.31.37c-1,.25-1.88.61-2.64,1.08s-1.34,1.06-1.76,1.78c-.42.72-.63,1.55-.63,2.48,0,.99.15,1.85.45,2.56.3.72.76,1.36,1.39,1.94.63.57,1.41,1.08,2.35,1.51s2.05.84,3.33,1.23c.6.18,1.21.37,1.84.57.63.2,1.25.38,1.86.55.61.17,1.22.35,1.82.55s1.19.37,1.76.53c1.62.5,3.04,1.06,4.27,1.68,1.23.63,2.25,1.36,3.07,2.21.82.85,1.43,1.83,1.84,2.94.4,1.11.61,2.39.61,3.85,0,2.11-.51,4.02-1.53,5.71-1.02,1.7-2.36,3.14-4.03,4.32-1.67,1.19-3.59,2.09-5.75,2.7-2.17.61-4.37.92-6.61.92-1.46,0-2.86-.08-4.19-.23-1.33-.16-2.6-.37-3.8-.65-1.2-.27-2.35-.57-3.44-.9-1.1-.33-2.14-.66-3.13-1v-9.98Z"/><path class="cls-7" d="m1006.74,392.01h-6.81v-3.6c1.12-.18,2.13-.36,3.03-.53.9-.17,1.68-.46,2.35-.86.67-.4,1.19-.98,1.57-1.74.38-.76.61-1.81.68-3.17l.39-5.75,6.61-1.25v12.44h14.87l-.27,4.46h-14.6v27.35c0,.94.28,1.72.84,2.35.56.63,1.25,1.14,2.07,1.55.82.4,1.68.7,2.56.9.89.2,1.67.29,2.35.29.44,0,.95-.05,1.53-.14.57-.09,1.13-.2,1.68-.33.55-.13,1.06-.27,1.53-.43.47-.16.83-.3,1.1-.43h1.33v3.21c-.37.23-.95.57-1.74,1-.8.43-1.72.87-2.76,1.31-1.04.44-2.18.83-3.4,1.15-1.23.33-2.43.49-3.6.49-1.54,0-2.99-.19-4.34-.57-1.36-.38-2.55-.92-3.58-1.62-1.03-.7-1.85-1.58-2.47-2.62-.61-1.04-.92-2.22-.92-3.52v-29.94Z"/><path class="cls-7" d="m1074.81,419.36v4.5c-.96.78-2.09,1.57-3.38,2.37-1.29.8-2.69,1.51-4.21,2.13-1.51.63-3.12,1.14-4.81,1.53-1.7.39-3.43.59-5.21.59-2.84,0-5.5-.47-7.96-1.41-2.46-.94-4.6-2.33-6.4-4.17s-3.22-4.11-4.25-6.81c-1.03-2.7-1.55-5.81-1.55-9.33,0-3.13.49-6.06,1.47-8.79.98-2.73,2.36-5.1,4.15-7.12s3.93-3.61,6.42-4.75c2.49-1.15,5.24-1.72,8.24-1.72,2.76,0,5.24.45,7.42,1.35,2.18.9,4.02,2.11,5.54,3.62,1.51,1.51,2.67,3.29,3.46,5.32s1.19,4.16,1.19,6.38c0,.26,0,.57-.02.94-.01.37-.03.75-.06,1.15-.03.4-.06.8-.12,1.17-.05.38-.1.7-.16.96h-29.39c0,5.74,1.29,10.06,3.88,12.95,2.58,2.9,6.22,4.34,10.92,4.34,1.51,0,2.96-.18,4.32-.53,1.37-.35,2.63-.79,3.8-1.31,1.16-.52,2.22-1.09,3.17-1.7.95-.61,1.77-1.17,2.45-1.66h1.1Zm-8.22-16.16c0-1.9-.18-3.63-.53-5.19-.35-1.55-.91-2.88-1.68-3.97s-1.77-1.94-3.01-2.52c-1.24-.59-2.75-.88-4.52-.88-1.56,0-3.01.28-4.32.84-1.32.56-2.48,1.38-3.48,2.47-1,1.08-1.82,2.4-2.45,3.95s-1.02,3.32-1.17,5.3h21.17Z"/><path class="cls-7" d="m1084.81,426.72l4.81-1.57c.44-.13.81-.35,1.12-.65.3-.3.45-.72.45-1.27v-27.16c0-.68-.2-1.21-.59-1.58-.39-.38-.8-.66-1.21-.84l-4.85-2.04v-2.78l13.85-2.15v9.12h.39c1.2-1.7,2.33-3.14,3.38-4.34,1.06-1.2,2.11-2.18,3.15-2.94,1.04-.76,2.08-1.3,3.11-1.64,1.03-.34,2.09-.51,3.19-.51.62,0,1.26.03,1.92.1.65.07,1.29.18,1.92.33.63.16,1.23.39,1.82.68.59.3,1.14.67,1.66,1.12v9.74h-4.78l-1.13-3.01c-.13-.31-.35-.6-.65-.86s-.65-.49-1.06-.69c-.41-.2-.83-.35-1.27-.45-.44-.1-.89-.16-1.33-.16-1.12,0-2.15.2-3.07.61-.93.4-1.78.91-2.56,1.53-.78.61-1.51,1.3-2.19,2.07-.68.77-1.32,1.52-1.92,2.25v23.6c0,.55.14.97.43,1.27.29.3.67.52,1.13.65l6.07,1.57v2.86h-21.8v-2.86Z"/><path class="cls-7" d="m734.94,552.65l4.97-1.6c.47-.16.84-.37,1.12-.65s.41-.69.41-1.23v-46.96c0-.55-.16-.98-.47-1.29s-.72-.57-1.21-.78l-4.62-1.92v-2.78l13.42-2.15v6.97h.51c1.15-1.67,2.37-2.99,3.68-3.97,1.3-.98,2.58-1.72,3.84-2.21,1.25-.5,2.43-.8,3.54-.92,1.11-.12,2.04-.18,2.8-.18,2.61,0,4.95.51,7.02,1.53s3.83,2.43,5.26,4.25c1.44,1.81,2.54,3.97,3.31,6.46.77,2.49,1.16,5.19,1.16,8.08,0,3.24-.46,6.27-1.37,9.12-.91,2.84-2.23,5.32-3.95,7.42-1.72,2.1-3.82,3.77-6.28,5.01-2.47,1.24-5.26,1.86-8.39,1.86-1.2,0-2.32-.12-3.37-.35-1.04-.23-2-.54-2.88-.92-.88-.38-1.66-.81-2.35-1.31-.69-.5-1.3-1.02-1.82-1.57v16.59c0,.55.16.96.47,1.23.31.27.68.48,1.1.61l6.07,1.68v2.86h-21.96v-2.86Zm14.32-23.05c.57.39,1.28.72,2.11.98.83.26,1.7.48,2.58.65.89.17,1.74.29,2.54.37.81.08,1.49.12,2.04.12,2.19,0,4.1-.42,5.71-1.25,1.62-.83,2.95-1.96,3.99-3.38,1.04-1.42,1.83-3.08,2.35-4.99.52-1.9.78-3.93.78-6.07,0-2.43-.25-4.7-.74-6.81-.5-2.11-1.27-3.95-2.31-5.5-1.04-1.55-2.37-2.77-3.97-3.66-1.6-.89-3.52-1.33-5.73-1.33-.65,0-1.4.07-2.23.22-.83.14-1.68.39-2.52.74-.85.35-1.68.82-2.5,1.41-.82.59-1.52,1.3-2.09,2.13v26.38Z"/><path class="cls-7" d="m810.02,537.15c-3.05,0-5.83-.51-8.34-1.53-2.5-1.02-4.64-2.47-6.42-4.36-1.77-1.89-3.15-4.2-4.13-6.93-.98-2.73-1.47-5.79-1.47-9.18,0-3.13.48-6.05,1.45-8.75.96-2.7,2.34-5.05,4.13-7.04,1.79-2,3.96-3.56,6.52-4.7,2.56-1.14,5.44-1.7,8.65-1.7,3.44,0,6.44.6,9,1.8,2.56,1.2,4.67,2.8,6.34,4.81,1.67,2.01,2.92,4.35,3.76,7.02s1.25,5.47,1.25,8.39c0,3.1-.48,6.01-1.45,8.71-.97,2.7-2.34,5.05-4.13,7.04-1.79,2-3.96,3.56-6.52,4.7-2.56,1.14-5.44,1.7-8.65,1.7Zm.55-4.27c2.27,0,4.15-.53,5.63-1.6,1.49-1.07,2.67-2.43,3.54-4.09.87-1.66,1.49-3.49,1.86-5.5.37-2.01.55-3.97.55-5.87,0-2.32-.22-4.6-.67-6.83-.44-2.23-1.15-4.21-2.13-5.95-.98-1.73-2.25-3.14-3.82-4.21-1.57-1.07-3.47-1.6-5.71-1.6-1.51,0-2.84.24-3.97.72-1.13.48-2.13,1.15-2.99,2-.86.85-1.58,1.83-2.17,2.94-.59,1.11-1.06,2.28-1.43,3.52-.37,1.24-.63,2.52-.78,3.85-.16,1.33-.23,2.62-.23,3.87,0,1.41.08,2.85.25,4.32.17,1.47.45,2.9.84,4.29.39,1.38.9,2.69,1.53,3.91.63,1.23,1.4,2.3,2.31,3.23.91.93,1.98,1.66,3.21,2.19,1.23.53,2.62.8,4.19.8Z"/><path class="cls-7" d="m840.4,533.31l4.81-1.57c.44-.13.82-.35,1.12-.65.3-.3.45-.72.45-1.27v-27.16c0-.68-.2-1.21-.59-1.58-.39-.38-.8-.66-1.21-.84l-4.85-2.04v-2.78l13.85-2.15v9.12h.39c1.2-1.7,2.33-3.14,3.38-4.34,1.06-1.2,2.11-2.18,3.15-2.94,1.04-.76,2.08-1.3,3.11-1.64,1.03-.34,2.09-.51,3.19-.51.63,0,1.27.03,1.92.1.65.07,1.29.18,1.92.33s1.23.39,1.82.68c.59.3,1.14.67,1.66,1.12v9.74h-4.77l-1.14-3.01c-.13-.31-.35-.6-.64-.86-.3-.26-.65-.49-1.06-.69-.41-.2-.83-.35-1.27-.45-.44-.1-.89-.16-1.33-.16-1.12,0-2.15.2-3.07.61-.93.4-1.78.91-2.56,1.53-.78.61-1.51,1.3-2.19,2.07-.68.77-1.32,1.52-1.92,2.25v23.6c0,.55.14.97.43,1.27.29.3.67.52,1.13.65l6.07,1.57v2.86h-21.8v-2.86Z"/><path class="cls-7" d="m888.44,498.6h-6.81v-3.6c1.12-.18,2.13-.36,3.03-.53.9-.17,1.68-.46,2.35-.86.66-.4,1.19-.98,1.56-1.74.38-.76.61-1.81.69-3.17l.39-5.75,6.61-1.25v12.44h14.87l-.27,4.46h-14.6v27.35c0,.94.28,1.72.84,2.35.56.63,1.25,1.14,2.07,1.55.82.4,1.68.7,2.56.9.89.2,1.67.29,2.35.29.44,0,.95-.05,1.53-.14.57-.09,1.13-.2,1.68-.33.55-.13,1.06-.27,1.53-.43.47-.16.84-.3,1.1-.43h1.33v3.21c-.37.23-.95.57-1.74,1-.8.43-1.72.87-2.76,1.31-1.04.44-2.18.83-3.4,1.15-1.23.33-2.43.49-3.6.49-1.54,0-2.99-.19-4.34-.57-1.36-.38-2.55-.92-3.58-1.62-1.03-.7-1.85-1.58-2.46-2.62s-.92-2.22-.92-3.52v-29.94Z"/><path class="cls-7" d="m919.29,533.31l5.4-1.57c.47-.13.85-.35,1.13-.65.29-.3.43-.72.43-1.27v-29.39h-7.75l.16-4.46h7.71c.21-3.83.76-7.09,1.64-9.76.89-2.67,2.06-4.84,3.52-6.5,1.46-1.66,3.2-2.86,5.21-3.62,2.01-.76,4.23-1.13,6.65-1.13.44,0,1,.03,1.66.1.66.07,1.36.16,2.07.27.72.12,1.42.24,2.09.37.68.13,1.26.26,1.76.39l-.27,7.16h-1.53c-.57-.23-1.17-.48-1.8-.74-.63-.26-1.29-.5-2-.72-.71-.22-1.45-.41-2.23-.57-.78-.16-1.62-.23-2.5-.23-1.51,0-2.72.18-3.62.53s-1.57.82-2.02,1.39c-.18.29-.33.8-.45,1.53-.12.73-.22,1.65-.31,2.76-.09,1.11-.16,2.4-.2,3.87-.04,1.47-.06,3.11-.06,4.91h11.9l-.2,4.46h-11.66v29.39c0,.55.16.98.49,1.29.33.31.7.52,1.12.63l6.3,1.57v2.86h-22.66v-2.86Z"/><path class="cls-7" d="m974.34,537.15c-3.05,0-5.83-.51-8.34-1.53-2.5-1.02-4.64-2.47-6.42-4.36-1.77-1.89-3.15-4.2-4.13-6.93-.98-2.73-1.47-5.79-1.47-9.18,0-3.13.48-6.05,1.45-8.75.96-2.7,2.34-5.05,4.13-7.04,1.79-2,3.96-3.56,6.52-4.7,2.56-1.14,5.44-1.7,8.65-1.7,3.44,0,6.44.6,9,1.8,2.56,1.2,4.67,2.8,6.34,4.81,1.67,2.01,2.92,4.35,3.76,7.02s1.25,5.47,1.25,8.39c0,3.1-.48,6.01-1.45,8.71-.97,2.7-2.34,5.05-4.13,7.04-1.79,2-3.96,3.56-6.52,4.7-2.56,1.14-5.44,1.7-8.65,1.7Zm.55-4.27c2.27,0,4.15-.53,5.63-1.6,1.49-1.07,2.67-2.43,3.54-4.09.87-1.66,1.49-3.49,1.86-5.5.37-2.01.55-3.97.55-5.87,0-2.32-.22-4.6-.67-6.83-.44-2.23-1.15-4.21-2.13-5.95-.98-1.73-2.25-3.14-3.82-4.21-1.57-1.07-3.47-1.6-5.71-1.6-1.51,0-2.84.24-3.97.72-1.13.48-2.13,1.15-2.99,2-.86.85-1.58,1.83-2.17,2.94-.59,1.11-1.06,2.28-1.43,3.52-.37,1.24-.63,2.52-.78,3.85-.16,1.33-.23,2.62-.23,3.87,0,1.41.08,2.85.25,4.32.17,1.47.45,2.9.84,4.29.39,1.38.9,2.69,1.53,3.91.63,1.23,1.4,2.3,2.31,3.23.91.93,1.98,1.66,3.21,2.19,1.23.53,2.62.8,4.19.8Z"/><path class="cls-7" d="m1003.59,533.31l5.91-1.57c.44-.13.82-.35,1.12-.65.3-.3.45-.72.45-1.27v-46.41c0-.57-.17-1.02-.51-1.33-.34-.31-.74-.56-1.21-.74l-6.03-2.23v-2.78l15.54-.7v54.2c0,.55.16.98.49,1.29.33.31.7.52,1.12.63l5.71,1.57v2.86h-22.58v-2.86Z"/><path class="cls-7" d="m1034.06,533.31l5.91-1.57c.47-.13.85-.35,1.15-.65.3-.3.45-.72.45-1.27v-27.28c0-.55-.16-.98-.47-1.31-.31-.33-.73-.57-1.25-.72l-5.71-1.92v-2.82l15.26-2.11v36.16c0,.55.16.98.47,1.29s.67.52,1.06.63l5.87,1.57v2.86h-22.74v-2.86Zm10.72-47.51c-.73,0-1.44-.12-2.13-.35s-1.29-.57-1.8-1-.92-.96-1.23-1.58-.47-1.34-.47-2.15.16-1.54.47-2.19c.31-.65.72-1.2,1.23-1.64.51-.44,1.11-.78,1.8-1.02.69-.23,1.4-.35,2.13-.35.89,0,1.69.1,2.41.31.72.21,1.33.52,1.84.94.51.42.91.93,1.19,1.55.29.61.43,1.31.43,2.09,0,.83-.15,1.58-.45,2.25-.3.67-.71,1.23-1.23,1.7-.52.47-1.14.83-1.86,1.08-.72.25-1.49.37-2.33.37Z"/><path class="cls-7" d="m1102.72,525.96v4.5c-.97.78-2.09,1.57-3.39,2.37-1.29.8-2.69,1.51-4.21,2.13-1.51.63-3.12,1.14-4.81,1.53-1.7.39-3.43.59-5.21.59-2.84,0-5.5-.47-7.96-1.41-2.46-.94-4.6-2.33-6.4-4.17-1.8-1.84-3.21-4.11-4.25-6.81-1.03-2.7-1.54-5.81-1.54-9.33,0-3.13.49-6.06,1.47-8.79.98-2.73,2.36-5.1,4.15-7.12s3.93-3.61,6.42-4.75c2.49-1.15,5.24-1.72,8.24-1.72,2.77,0,5.24.45,7.42,1.35,2.18.9,4.02,2.11,5.54,3.62,1.51,1.51,2.67,3.29,3.46,5.32s1.19,4.16,1.19,6.38c0,.26,0,.57-.02.94-.01.37-.03.75-.06,1.15-.03.4-.07.8-.12,1.17-.05.38-.1.7-.16.96h-29.39c0,5.74,1.29,10.06,3.87,12.95,2.58,2.9,6.22,4.34,10.92,4.34,1.51,0,2.95-.18,4.32-.53s2.63-.79,3.8-1.31c1.16-.52,2.22-1.09,3.17-1.7.95-.61,1.77-1.17,2.45-1.66h1.1Zm-8.22-16.16c0-1.9-.18-3.63-.53-5.19-.35-1.55-.91-2.88-1.68-3.97s-1.77-1.94-3.01-2.52c-1.24-.59-2.75-.88-4.52-.88-1.57,0-3.01.28-4.32.84-1.32.56-2.48,1.38-3.48,2.47s-1.82,2.4-2.45,3.95c-.63,1.55-1.02,3.32-1.17,5.3h21.17Z"/><g id="Artwork_9"><g class="cls-4"><g class="cls-13"><path class="cls-14" d="m839.61,1845.76c0,49.25-97.29,89.17-217.31,89.17s-217.31-39.92-217.31-89.17,97.29-89.17,217.31-89.17,217.31,39.92,217.31,89.17"/><path class="cls-6" d="m836.61,1822.53h-362.68c-13.99-150.87-27.98-301.74-41.96-452.61h449.61c-14.99,150.87-29.97,301.74-44.96,452.61"/><path class="cls-20" d="m881.57,1369.18c0,26.07-100.65,47.21-224.8,47.21s-224.81-21.14-224.81-47.21,100.65-47.21,224.81-47.21,224.8,21.14,224.8,47.21"/><path class="cls-6" d="m836.61,1821.78c0,26.07-81.19,47.21-181.34,47.21s-181.34-21.14-181.34-47.21,81.19-47.21,181.34-47.21,181.34,21.14,181.34,47.21"/><path class="cls-8" d="m859.09,1368.79c0,23.38-90.25,42.33-201.57,42.33s-201.58-18.95-201.58-42.33,90.25-42.33,201.58-42.33,201.57,18.95,201.57,42.33"/><path class="cls-5" d="m850.1,1377.58c0,6.44-13.22,12.41-35.7,17.28-29.85,9.25-88.9,15.53-156.88,15.53s-127.03-6.28-156.88-15.53c-22.48-4.87-35.7-10.84-35.7-17.28,0-5.46,9.47-10.57,26-14.94,5.73-8.48,31.05-17.01,62.59-20.4,24.86-2.67,47.27-1.47,59.92,2.56,6.64-.9,13.97-1.38,21.67-1.38s15.05.48,21.7,1.39c6.59-7.15,27.7-12.36,52.68-12.36,23.12,0,42.91,4.47,50.97,10.79,9.2-1.33,20.88-1.27,33.21.48,26.74,3.78,46.52,14.07,44.18,22.99-.03.1-.05.24-.1.34,7.97,3.27,12.35,6.82,12.35,10.52"/><path class="cls-19" d="m689.74,1369.18c0,7.86-11.74,14.24-26.23,14.24s-26.23-6.37-26.23-14.24,11.74-14.24,26.23-14.24,26.23,6.37,26.23,14.24"/><rect class="cls-3" x="656.77" y="794.43" width="13.49" height="584.49"/><path class="cls-3" d="m658.36,877.48c.76,1.12,1.52,2.25,2.27,3.37,5.11-5.59,10.63-12.62,15.43-21.06,7.5-13.21,10.54-25.17,11.8-34.08-4.24,1.72-8.48,3.45-12.73,5.17,1.33,6.27,2.72,18.94-5.39,32.81-3.4,5.81-7.62,10.39-11.38,13.79"/><path class="cls-2" d="m675.93,833.27c-16.97-2.42-29.93-34.08-20.06-59.24,20.33-51.83,136.12-72.32,144.33-62.74,2.59,3.02-7.15,7.13-29.33,30.72-25.58,27.2-26.11,36.05-50.69,60.44-20.66,20.49-32.74,32.47-44.24,30.83"/><path class="cls-10" d="m708.82,769.75c-9,9.8-16.5,20.76-22.34,31.72-4.76,8.94-10.76,21.6-5.56,31.11,10.15-1.81,21.56-13.1,39.29-30.69,24.59-24.39,25.12-33.24,50.7-60.44,22.02-23.42,31.77-27.64,29.38-30.65-35.01,15.67-68.7,34.14-91.47,58.95"/><path class="cls-3" d="m700.07,1225.95c-.31,1.39-.62,2.78-.94,4.17,10.97-1.32,23.8-3.54,37.26-7.37,21.06-6,36.15-13.79,46.33-20.24-6.21-1.27-12.42-2.55-18.63-3.83-4.81,5.93-15.91,17.1-38.27,23.24-9.37,2.57-18.39,3.63-25.76,4.02"/><path class="cls-2" d="m762.58,1201.12c-15.59-12.66,2.07-46.55,37.5-60.75,72.99-29.27,216.12,27.1,215.33,40.05-.25,4.08-14.65,1.28-61.59,6.45-54.11,5.96-63.45,12.81-113.73,17.11-42.24,3.61-66.94,5.73-77.51-2.86"/><path class="cls-10" d="m860.48,1170.28c-19.27,2.29-38.09,6.45-55.17,11.67-13.92,4.26-32.84,10.76-36.76,21.76,12.57,4.93,35.87,2.95,72.13-.15,50.28-4.3,59.62-11.16,113.73-17.11,46.59-5.13,61.12-2.41,61.57-6.37-52.68-9.35-106.73-15.59-155.5-9.8"/><path class="cls-3" d="m662.3,1016.93c-.65,1.61-1.29,3.22-1.94,4.83,8.94-.93,19.6-2.81,31.22-6.55,18.17-5.84,32.21-14.12,42.01-21.1-4.48-1.84-8.95-3.68-13.43-5.52-5.47,6.67-17.36,19.13-36.6,25.07-8.05,2.49-15.4,3.22-21.27,3.26"/><path class="cls-2" d="m718.27,991.36c-8.51-15.7,15.08-54.38,46.84-69.02,65.43-30.17,160.85,43.85,156.48,58.96-1.38,4.76-11.81.68-49.93,4.1-43.96,3.94-53.23,11.44-93.72,13.66-34.01,1.86-53.9,2.95-59.67-7.7"/><path class="cls-10" d="m803.6,960.75c-15.7,1.6-31.6,5.42-46.44,10.57-12.1,4.2-28.74,10.76-34.98,23.41,8.38,6.47,27.14,5.47,56.34,3.87,40.49-2.22,49.76-9.72,93.72-13.66,37.85-3.39,48.4.6,49.9-4-38.41-13.9-78.79-24.24-118.54-20.19"/><path class="cls-3" d="m623.55,1105.53c.85,1.21,1.71,2.41,2.56,3.62-8.09-.02-17.86-.66-28.81-2.67-17.12-3.14-31-8.5-40.91-13.18,3.65-1.78,7.29-3.57,10.94-5.35,6.01,4.77,18.72,13.56,36.8,16.7,7.57,1.31,14.21,1.31,19.41.89"/><path class="cls-2" d="m569.49,1089.96c4.8-12.91-22.84-41.24-53.54-50.18-63.25-18.43-134.91,46.74-128.41,58.19,2.05,3.61,10.59-.39,44.97-.7,39.64-.35,49.17,4.77,85.44,3.35,30.47-1.2,48.29-1.9,51.54-10.66"/><path class="cls-10" d="m488.53,1072.73c14.2.02,28.95,1.76,43,4.63,11.45,2.34,27.35,6.15,35.08,15.53-6.3,5.7-23.1,6.38-49.26,7.41-36.26,1.43-45.79-3.7-85.44-3.35-34.13.31-42.79,4.24-44.92.77,31.62-13.84,65.61-25.05,101.53-24.99"/><path class="cls-3" d="m714.26,1074.7c1.48-.77,2.96-1.54,4.43-2.31-5.72,10.28-13.07,22.54-22.25,35.95-14.36,20.96-28.04,37.21-38.42,48.59,1.27-5.11,2.55-10.22,3.82-15.33,7.7-6.39,23.05-20.25,38.08-42.43,6.29-9.29,10.97-17.73,14.33-24.47"/><path class="cls-3" d="m704.04,1271.36l3.95-1.51c-4.39,8.1-10.12,17.71-17.46,28.1-11.48,16.25-22.78,28.61-31.45,37.18.7-4.18,1.41-8.35,2.11-12.53,6.63-4.63,19.73-14.82,31.72-32.03,5.02-7.21,8.61-13.87,11.12-19.21"/><path class="cls-3" d="m730.7,1280.84c1.13.3,2.25.59,3.38.89-5.16,3.91-11.7,8.29-19.65,12.42-12.43,6.47-23.86,10.06-32.43,12.12,1.46-2.82,2.92-5.65,4.39-8.47,6.13-.11,18.48-1.11,31.51-8.05,5.46-2.91,9.69-6.13,12.8-8.91"/><path class="cls-3" d="m619.4,830.65c-1.68-1.72-3.36-3.45-5.03-5.17,2.97,16.62,7.25,36.69,13.51,59.16,9.79,35.12,20.92,63.53,29.82,83.78.7-7.54,1.4-15.08,2.09-22.62-7.6-12.23-22.19-38.15-32.32-75.25-4.24-15.53-6.65-29.18-8.07-39.89"/><path class="cls-3" d="m601.43,856.68c-1.5-.62-3-1.24-4.5-1.87,3.79,9.26,8.93,20.28,15.88,32.24,10.86,18.71,22.23,33.04,31.13,43.01-.07-4.71-.14-9.41-.2-14.12-7.17-5.48-21.13-17.46-32.43-37.27-4.73-8.29-7.82-15.91-9.87-22"/><path class="cls-3" d="m607.03,1147.58c-1.63-.4-3.26-.79-4.89-1.19,5.47,8.87,12.62,19.31,21.76,30.43,14.29,17.39,28.34,30.23,39.11,39.02-.9-4.8-1.79-9.6-2.69-14.41-8.23-4.46-24.49-14.48-39.42-32.93-6.25-7.72-10.72-15.01-13.87-20.92"/><path class="cls-3" d="m615.72,891.92c.11.71.21,1.43.32,2.15-3.52-1.22-7.63-2.99-11.96-5.61-6.77-4.09-11.63-8.78-14.92-12.54,1.98-.32,3.96-.65,5.95-.97,1.56,3.23,5.16,9.41,12.35,13.64,3.01,1.77,5.9,2.76,8.26,3.34"/><path class="cls-2" d="m595.6,876.25c4.94-5.57-.86-23.51-12.26-32.46-23.49-18.44-69.08,2.6-68.77,9.15.1,2.07,4.7,1.39,19.74,6.39,17.35,5.76,20.37,9.68,36.48,14.41,13.54,3.97,21.45,6.29,24.8,2.52"/><path class="cls-10" d="m564.13,855.74c6.18,2.13,12.22,5.19,17.71,8.68,4.47,2.85,10.56,7.09,11.86,12.81-4,1.84-11.47-.35-23.09-3.76-16.11-4.73-19.13-8.65-36.48-14.41-14.94-4.96-19.58-4.33-19.74-6.34,16.83-2.01,34.1-2.39,49.74,3.01"/><path class="cls-3" d="m622.59,855.23c-.2.71-.39,1.42-.59,2.13-2.72-2.72-5.76-6.21-8.65-10.59-4.52-6.84-7.05-13.37-8.52-18.32,1.95.6,3.89,1.19,5.84,1.79.11,3.69.88,11.03,5.72,18.18,2.03,3,4.27,5.22,6.19,6.82"/><path class="cls-2" d="m610.6,831.66c6.8-2.92,8.83-22.11,2.06-35.53-13.95-27.65-64.25-28.8-66.65-22.61-.76,1.95,3.73,3.41,15.45,14.82,13.51,13.16,14.67,18.15,27.48,29.79,10.76,9.79,17.05,15.51,21.66,13.53"/><path class="cls-10" d="m590.2,798.5c4.78,4.76,9.06,10.32,12.65,16.03,2.93,4.66,6.76,11.32,5.61,17.2-4.41-.11-10.35-5.5-19.59-13.9-12.81-11.65-13.96-16.64-27.48-29.79-11.64-11.33-16.14-12.85-15.46-14.78,16.22,5.74,32.18,13.2,44.27,25.25"/><path class="cls-3" d="m632.47,892.85c.32.36.64.72.97,1.09,1.69-1.88,3.49-4.23,4.96-7.05,2.3-4.4,2.99-8.35,3.14-11.29-1.51.6-3.02,1.21-4.53,1.81.72,2.04,1.7,6.19-.81,10.82-1.05,1.94-2.45,3.48-3.72,4.63"/><path class="cls-2" d="m637.38,878.19c-6.38-.64-12.35-10.92-9.6-19.26,5.66-17.19,47.89-24.95,51.28-21.88,1.07.97-2.39,2.4-9.77,10.34-8.5,9.15-8.38,12.06-16.61,20.29-6.92,6.91-10.97,10.95-15.3,10.51"/><path class="cls-10" d="m647.27,857.05c-2.98,3.3-5.37,6.96-7.14,10.61-1.44,2.98-3.2,7.18-.93,10.26,3.7-.69,7.52-4.49,13.46-10.42,8.24-8.22,8.11-11.13,16.61-20.29,7.32-7.88,10.78-9.35,9.79-10.32-12.42,5.46-24.25,11.82-31.8,20.16"/><path class="cls-3" d="m676.04,1126.75l1.06,1.75c1.85-3.03,3.81-6.83,5.43-11.37,2.52-7.1,3.28-13.47,3.43-18.2-1.65.97-3.31,1.95-4.96,2.92.79,3.3,1.86,9.98-.88,17.44-1.15,3.12-2.68,5.6-4.07,7.46"/><path class="cls-2" d="m681.41,1103.11c-6.98-1.04-13.51-17.6-10.5-31.05,6.19-27.71,52.38-40.23,56.09-35.28,1.17,1.56-2.62,3.88-10.68,16.68-9.3,14.76-9.16,19.45-18.17,32.71-7.57,11.14-12,17.65-16.73,16.95"/><path class="cls-10" d="m692.23,1069.03c-3.26,5.32-5.87,11.22-7.81,17.11-1.58,4.8-3.51,11.58-1.02,16.54,4.05-1.11,8.23-7.24,14.73-16.81,9.01-13.26,8.87-17.95,18.17-32.71,8.01-12.71,11.8-15.08,10.71-16.64-13.59,8.8-26.53,19.05-34.78,32.51"/><path class="cls-3" d="m678.51,1310.36c-.09-.35-.18-.69-.27-1.04,2.16.44,4.7,1.12,7.4,2.21,4.22,1.7,7.32,3.78,9.44,5.48-1.18.25-2.36.5-3.54.75-1.06-1.51-3.46-4.39-7.94-6.13-1.87-.73-3.65-1.09-5.09-1.26"/><path class="cls-2" d="m691.19,1317.13c-2.76,2.97,1.4,11.52,8.59,15.39,14.81,7.98,41.41-4.46,40.98-7.67-.14-1.01-2.87-.47-12.11-2.23-10.64-2.03-12.61-3.82-22.47-5.4-8.29-1.33-13.13-2.1-15-.09"/><path class="cls-10" d="m710.88,1325.76c-3.79-.76-7.54-1.99-10.97-3.45-2.8-1.2-6.61-3-7.61-5.75,2.34-1.09,6.91-.36,14.02.78,9.86,1.58,11.82,3.37,22.47,5.4,9.16,1.75,11.93,1.23,12.1,2.21-10.03,1.77-20.4,2.75-30,.81"/><path class="cls-3" d="m625.57,1174.35c.15.51.31,1.03.46,1.54-3.33-.65-7.25-1.65-11.43-3.26-6.54-2.51-11.39-5.59-14.71-8.11,1.79-.38,3.59-.75,5.38-1.13,1.7,2.24,5.5,6.5,12.44,9.09,2.91,1.08,5.64,1.6,7.85,1.86"/><path class="cls-2" d="m605.84,1164.32c4.09-4.41-2.68-17.09-13.87-22.82-23.05-11.81-63.22,6.72-62.41,11.48.26,1.5,4.43.69,18.64,3.28,16.39,2.99,19.48,5.64,34.66,7.96,12.75,1.95,20.21,3.09,22.98.1"/><path class="cls-10" d="m575.29,1151.56c5.85,1.12,11.64,2.93,16.96,5.1,4.34,1.77,10.27,4.43,11.92,8.52-3.53,1.62-10.56.55-21.51-1.13-15.18-2.32-18.26-4.97-34.66-7.96-14.12-2.57-18.32-1.79-18.64-3.25,15.29-2.64,31.12-4.13,45.92-1.28"/><path class="cls-3" d="m698.22,1281c-.13.63-.26,1.25-.39,1.88,2.45-.99,5.35-2.45,8.46-4.65,4.86-3.44,8.5-7.44,11.01-10.67-1.3-.33-2.59-.66-3.89-.99-1.32,2.8-4.24,8.14-9.39,11.69-2.16,1.49-4.17,2.29-5.8,2.74"/><path class="cls-2" d="m712.97,1267.71c-2.83-5,2.55-20.62,10.92-28.21,17.24-15.65,45.9,3.86,45.14,9.6-.24,1.81-3.25,1.12-13.72,5.15-12.07,4.66-14.41,8.03-25.57,11.81-9.37,3.18-14.85,5.04-16.77,1.64"/><path class="cls-10" d="m735.71,1250.43c-4.31,1.73-8.6,4.27-12.56,7.22-3.23,2.4-7.65,5.98-9,10.98,2.52,1.7,7.69-.04,15.73-2.77,11.16-3.78,13.5-7.16,25.57-11.81,10.39-4.01,13.43-3.35,13.71-5.12-11.06-2.15-22.57-2.88-33.46,1.5"/><path class="cls-3" d="m714.49,1293.6c-.68.42-1.37.84-2.05,1.26,3.62,1.01,8.15,1.97,13.55,2.48,8.45.8,16,.21,21.6-.58-1.18-1.24-2.37-2.48-3.55-3.72-3.88,1.32-11.77,3.55-20.65,2.63-3.72-.39-6.68-1.23-8.91-2.07"/><path class="cls-2" d="m742.57,1293.64c1.09-6.24,20.56-15.11,36.53-15.14,32.91-.04,48.62,37.49,42.84,41.66-1.82,1.32-4.64-1.51-19.94-6-17.64-5.17-23.19-4.14-39.05-9.35-13.33-4.38-21.12-6.94-20.38-11.18"/><path class="cls-10" d="m783.11,1296.37c-6.36-1.79-13.39-2.89-20.39-3.42-5.71-.43-13.77-.78-19.59,2.34,1.39,3.29,8.73,5.71,20.17,9.47,15.86,5.21,21.41,4.18,39.05,9.35,15.19,4.45,18.08,7.27,19.9,6.02-10.67-10.04-23.06-19.24-39.14-23.76"/><path class="cls-17" d="m733.2,1384.16c0,10.34-31.2,18.73-69.69,18.73s-69.69-8.39-69.69-18.73c0-4.24,5.23-8.15,14.06-11.29,3.25-4.96,10.39-9.04,19.11-10.3,7.9-1.15,15.24.27,19.92,3.39.54-.03,1.06-.08,1.6-.09,3.7-2.11,9.05-3.45,15-3.45,5.12,0,9.8.99,13.37,2.62,4.83-2.95,12.23-4.06,20.11-2.56,7.21,1.39,13.25,4.68,16.82,8.69,12.02,3.37,19.39,7.94,19.39,12.98"/><path class="cls-15" d="m851.6,1677.16c-5.1,48.96-10.2,97.91-15.3,146.87h-.03c-1.54,25.73-82.11,46.46-181.31,46.46s-179.77-20.73-181.31-46.46h-.03c-23.42-228.93-28.57-295.02-26.66-295.24,2.65-.3-2.68,128.28,79.43,205.32,48.41,45.42,107.87,54.79,125.89,56.95,25.37,3.05,84.61,10.2,137.88-28.48,40.04-29.07,55.85-68.68,61.45-85.43"/><path class="cls-8" d="m492.28,1535.11c1.63-.07,3.25-.14,4.88-.22.34-.01.62-.1.85-.25.23-.15.33-.43.31-.82-.48-9.65-.95-19.3-1.42-28.96-.02-.37-.15-.68-.4-.93-.25-.25-.55-.45-.9-.61-1.69-.81-3.37-1.63-5.06-2.45-.03-.65-.07-1.3-.1-1.94,6.43,1.42,12.85,2.76,19.28,4.01.03.65.06,1.3.09,1.94-1.63.13-3.27.25-4.9.37-.36.02-.66.1-.89.26-.23.16-.33.41-.32.77.23,5.02.47,10.04.71,15.06,5.82-4.18,11.67-8.43,17.56-12.75-1.03-.66-2.07-1.32-3.11-1.99-.03-.65-.05-1.3-.08-1.94,5.02.92,10.04,1.78,15.06,2.6.02.65.05,1.3.07,1.94-1.66.17-3.32.34-4.98.5-.39.02-.83.11-1.33.26-.5.15-.94.38-1.34.68-4.3,3.06-8.58,6.08-12.85,9.06,5.45,6.72,10.88,13.38,16.28,19.99.16.17.33.36.52.56.19.21.38.41.58.6.2.19.41.37.63.53.22.16.42.28.62.37,1.55.67,3.09,1.34,4.64,2.01.02.63.05,1.26.07,1.89-5.38-.87-10.75-1.81-16.13-2.8-.03-.63-.05-1.26-.08-1.89.85-.25,1.7-.5,2.55-.75-4.71-5.87-9.43-11.78-14.18-17.74-1.46.41-2.92.82-4.38,1.23.18,3.84.36,7.68.54,11.52.02.39.15.71.4.96.24.25.55.46.92.62,1.66.77,3.32,1.53,4.97,2.29.03.67.06,1.33.09,2-6.35-1.25-12.7-2.59-19.05-4.01-.03-.67-.07-1.33-.1-2"/><path class="cls-8" d="m541.62,1544.52c1.3-.15,2.61-.31,3.91-.46.36-.03.66-.13.9-.3.24-.17.35-.44.34-.81-.21-6.16-.42-12.31-.63-18.47-.02-.46-.19-.84-.52-1.15-.33-.31-.67-.54-1.02-.72-1.35-.66-2.7-1.32-4.06-1.99-.02-.63-.05-1.26-.07-1.89,3.8.1,7.6.17,11.4.22.07,2.07.13,4.13.2,6.2.11.01.22.03.32.05.95-1.02,1.85-1.87,2.7-2.57.85-.7,1.7-1.25,2.54-1.65.85-.4,1.69-.66,2.54-.79.85-.12,1.72-.13,2.63-.01.52.07,1.05.15,1.59.26.54.11,1.07.25,1.59.42.52.17,1.03.38,1.52.64.49.26.95.57,1.4.92.06,2.21.12,4.42.18,6.63-1.31-.15-2.63-.31-3.94-.47-.33-.72-.66-1.44-.99-2.16-.11-.23-.3-.44-.55-.65-.25-.21-.55-.4-.89-.57-.34-.17-.69-.32-1.06-.44-.37-.12-.73-.2-1.1-.25-.93-.12-1.77-.09-2.53.08-.76.17-1.45.43-2.08.76-.63.33-1.22.72-1.76,1.17-.54.45-1.05.88-1.53,1.31.17,5.35.34,10.7.51,16.05.01.37.14.68.38.91.24.24.56.43.95.57,1.67.58,3.34,1.16,5.01,1.73.02.65.04,1.3.06,1.94-5.95-.78-11.91-1.63-17.86-2.56-.02-.65-.05-1.3-.07-1.94"/><path class="cls-8" d="m606.14,1546.67c.01,1.02.03,2.04.05,3.06-.78.48-1.7.96-2.75,1.42-1.05.47-2.19.87-3.42,1.2-1.23.33-2.54.58-3.92.73-1.39.16-2.8.17-4.26.04-2.33-.2-4.51-.72-6.54-1.55-2.03-.83-3.8-1.95-5.31-3.35-1.51-1.4-2.71-3.07-3.6-4.99-.89-1.93-1.37-4.09-1.43-6.48-.05-2.13.3-4.08,1.06-5.84.76-1.77,1.86-3.26,3.31-4.49,1.44-1.22,3.19-2.13,5.23-2.71,2.04-.59,4.31-.77,6.79-.56,2.29.19,4.34.66,6.15,1.41,1.81.75,3.35,1.68,4.62,2.8,1.27,1.12,2.24,2.39,2.92,3.82.68,1.43,1.03,2.89,1.05,4.4,0,.18,0,.39,0,.64,0,.25-.02.51-.04.78-.02.27-.05.54-.08.79-.04.25-.08.47-.12.64-8.06-.53-16.13-1.2-24.19-2,.09,3.9,1.22,6.95,3.38,9.12,2.17,2.17,5.17,3.43,9.02,3.75,1.24.1,2.42.08,3.54-.07,1.12-.15,2.15-.37,3.1-.65.94-.29,1.81-.61,2.58-.97.78-.36,1.44-.69,1.99-.99.3.02.6.04.9.06m-6.94-11.47c-.02-1.29-.19-2.48-.5-3.56-.31-1.08-.79-2.01-1.44-2.81-.65-.79-1.49-1.43-2.52-1.91-1.03-.48-2.28-.78-3.74-.91-1.29-.11-2.48-.03-3.56.26-1.08.28-2.03.75-2.84,1.41-.81.66-1.47,1.49-1.96,2.49-.49,1.01-.79,2.17-.89,3.51,5.82.58,11.63,1.08,17.44,1.52"/><path class="cls-8" d="m615.49,1546.16c1.26.07,2.53.13,3.79.19.35.88.7,1.75,1.06,2.63.15.36.37.67.64.93.27.26.56.47.86.62.45.23.93.44,1.45.62.52.18,1.06.34,1.63.49.57.15,1.15.27,1.75.36.6.09,1.2.15,1.8.17.88.03,1.77-.02,2.68-.15.91-.13,1.74-.37,2.48-.71.75-.34,1.35-.79,1.8-1.34.46-.55.68-1.21.68-1.99,0-.66-.13-1.22-.38-1.69-.25-.47-.61-.88-1.08-1.23-.47-.35-1.06-.65-1.74-.91-.69-.26-1.47-.51-2.35-.75-1.22-.32-2.43-.65-3.63-.98-1.19-.33-2.37-.66-3.53-.99-1.23-.35-2.3-.8-3.23-1.34-.93-.54-1.71-1.16-2.35-1.86-.64-.7-1.13-1.45-1.46-2.25-.33-.8-.5-1.65-.51-2.54-.01-1.26.36-2.4,1.14-3.41.77-1.02,1.82-1.88,3.14-2.59,1.32-.71,2.84-1.24,4.56-1.6,1.72-.36,3.53-.5,5.43-.44.99.03,1.93.09,2.81.17.88.08,1.73.18,2.54.32.81.14,1.6.29,2.36.46.77.17,1.56.36,2.38.57.05,2.3.11,4.6.16,6.89-1.28-.02-2.56-.05-3.84-.08-.36-.93-.72-1.86-1.08-2.79-.13-.29-.34-.55-.62-.79-.28-.24-.57-.42-.87-.56-.76-.32-1.58-.57-2.46-.74-.89-.17-1.81-.27-2.78-.3-.99-.03-1.9.02-2.73.15s-1.55.35-2.17.64c-.62.29-1.1.68-1.44,1.15-.34.47-.51,1.03-.5,1.67,0,.68.14,1.26.39,1.76.25.5.64.95,1.16,1.37.52.41,1.17.78,1.94,1.1.78.32,1.69.64,2.75.94.49.14,1,.29,1.52.44.52.15,1.03.29,1.53.42.51.13,1.01.27,1.5.42.49.15.98.28,1.45.4,1.33.37,2.5.78,3.52,1.23,1.01.45,1.86.97,2.53,1.56.68.59,1.18,1.26,1.52,2.02.33.76.5,1.63.51,2.63,0,1.44-.41,2.72-1.24,3.86-.83,1.14-1.93,2.1-3.29,2.87-1.36.78-2.93,1.35-4.7,1.71-1.77.36-3.57.51-5.41.45-1.2-.04-2.34-.14-3.43-.29-1.09-.15-2.13-.34-3.11-.57-.98-.23-1.93-.48-2.83-.75-.9-.27-1.76-.54-2.57-.81-.03-2.26-.06-4.52-.08-6.78"/><path class="cls-8" d="m653.91,1529.65c-1.87,0-3.75,0-5.62-.02,0-.82,0-1.63,0-2.45.93-.12,1.76-.23,2.51-.34.74-.11,1.39-.31,1.94-.58.55-.27.98-.67,1.29-1.18.31-.51.5-1.23.57-2.16.11-1.3.22-2.61.33-3.91,1.83-.29,3.65-.58,5.48-.88,0,2.82-.01,5.64-.02,8.46,4.1-.04,8.19-.1,12.29-.21-.08,1.01-.16,2.03-.24,3.04-4.02.1-8.04.17-12.05.2-.01,6.2-.03,12.4-.04,18.6,0,.64.23,1.17.69,1.59.46.42,1.03.77,1.7,1.03.67.27,1.37.46,2.1.58.73.12,1.37.18,1.93.17.36,0,.78-.05,1.25-.12.47-.07.93-.16,1.38-.25.45-.1.87-.2,1.25-.32.39-.12.69-.22.9-.31.36,0,.73-.02,1.09-.03,0,.73,0,1.45-.01,2.18-.3.17-.78.41-1.43.71-.65.31-1.41.62-2.26.94-.86.32-1.79.6-2.79.84s-1.99.36-2.95.38c-1.26.02-2.45-.1-3.56-.35-1.11-.25-2.09-.61-2.93-1.09-.84-.48-1.52-1.07-2.02-1.78-.5-.71-.75-1.51-.75-2.39v-20.35"/><path class="cls-8" d="m678.4,1552.84c1.62-.41,3.24-.82,4.85-1.24.39-.1.7-.26.95-.48.25-.21.37-.51.38-.88.06-6.18.12-12.36.18-18.55,0-.37-.12-.66-.38-.87-.26-.21-.6-.36-1.03-.45-1.57-.37-3.14-.75-4.71-1.13,0-.64,0-1.28.01-1.92,4.21-.62,8.42-1.28,12.63-1.97-.1,8.19-.19,16.39-.29,24.58,0,.37.12.66.37.86.25.2.54.33.86.38,1.6.27,3.2.53,4.8.79,0,.65-.02,1.29-.03,1.94-6.21.37-12.42.66-18.62.87,0-.65.01-1.3.01-1.94m9.13-32.65c-.61.03-1.19-.03-1.76-.16-.57-.14-1.07-.34-1.48-.62-.42-.28-.76-.62-1.01-1.04-.25-.42-.38-.9-.38-1.45,0-.55.14-1.05.4-1.51.26-.45.61-.84,1.03-1.16.42-.32.92-.57,1.5-.75.57-.18,1.17-.29,1.77-.32.74-.03,1.4,0,1.99.12.59.11,1.1.3,1.52.56.42.26.74.6.98,1,.23.4.35.87.34,1.4,0,.57-.14,1.09-.39,1.55-.25.47-.6.87-1.03,1.21-.44.34-.95.61-1.55.81-.6.2-1.24.31-1.93.34"/><path class="cls-8" d="m703.53,1551.56c1.31-.44,2.62-.89,3.93-1.34.39-.13.7-.31.94-.52.24-.21.36-.51.37-.88.11-6.26.22-12.52.33-18.79,0-.37-.12-.65-.37-.84-.25-.19-.6-.34-1.02-.47-1.25-.34-2.51-.69-3.76-1.04.01-.63.02-1.26.03-1.89,3.69-.74,7.39-1.5,11.09-2.3-.03,1.52-.06,3.03-.09,4.55.14-.01.28-.02.42-.03.99-1.13,1.97-2.04,2.94-2.75.97-.7,1.94-1.27,2.89-1.69.96-.42,1.9-.73,2.84-.93.94-.19,1.86-.34,2.77-.43,1.53-.15,2.97-.12,4.31.1,1.34.22,2.51.67,3.5,1.34.99.67,1.76,1.58,2.32,2.74.55,1.16.8,2.59.76,4.29-.14,5.1-.27,10.2-.41,15.3-.01.42.1.73.34.92.24.18.54.3.9.35,1.15.22,2.29.44,3.44.65-.02.65-.04,1.3-.06,1.94-5.25.64-10.49,1.22-15.74,1.74.01-.65.03-1.3.05-1.94,1.1-.46,2.2-.93,3.3-1.4.39-.16.71-.36.97-.58.26-.22.4-.54.41-.97.11-4.34.21-8.68.32-13.01.03-1.26-.04-2.37-.21-3.32-.17-.95-.52-1.74-1.04-2.36-.52-.62-1.27-1.06-2.24-1.31-.97-.26-2.26-.31-3.85-.15-.69.07-1.42.18-2.18.34-.77.16-1.52.37-2.27.64-.75.27-1.46.61-2.13,1.02-.67.41-1.28.91-1.8,1.48-.12,6.09-.24,12.19-.36,18.28,0,.37.12.65.38.83.26.18.57.3.91.36.99.27,1.97.54,2.96.8-.01.65-.03,1.3-.04,1.94-5.29.48-10.58.9-15.87,1.26,0-.65.02-1.29.03-1.94"/><path class="cls-8" d="m780.13,1537.29c-.04,1.02-.08,2.04-.12,3.06-.81.67-1.76,1.37-2.84,2.09s-2.25,1.4-3.51,2.03c-1.26.63-2.58,1.19-3.98,1.68-1.4.49-2.83.85-4.28,1.07-2.33.36-4.49.37-6.49.02-2-.35-3.72-1.04-5.15-2.09-1.44-1.05-2.55-2.44-3.34-4.16-.79-1.72-1.15-3.78-1.08-6.18.06-2.13.53-4.17,1.39-6.13.86-1.96,2.05-3.73,3.57-5.3,1.52-1.58,3.32-2.9,5.41-3.98,2.09-1.08,4.37-1.8,6.85-2.18,2.29-.35,4.32-.37,6.1-.04,1.78.32,3.27.89,4.48,1.71,1.21.82,2.12,1.86,2.72,3.13.6,1.27.87,2.66.81,4.17,0,.18-.02.39-.04.64-.02.25-.05.52-.08.79-.03.28-.08.55-.13.82-.05.27-.1.49-.15.67-8.07,1.4-16.13,2.66-24.2,3.79-.13,3.9.84,6.69,2.9,8.35,2.05,1.66,5,2.21,8.86,1.6,1.24-.2,2.43-.5,3.56-.93,1.13-.42,2.18-.89,3.15-1.4.97-.51,1.85-1.05,2.65-1.6.8-.55,1.48-1.04,2.05-1.48.3-.05.6-.1.9-.16m-6.33-9.85c.05-1.3-.05-2.45-.3-3.46-.25-1.01-.68-1.83-1.29-2.48-.61-.64-1.42-1.08-2.43-1.32-1.01-.24-2.25-.24-3.71-.02-1.29.2-2.49.56-3.59,1.11-1.1.54-2.08,1.24-2.93,2.1-.85.86-1.56,1.85-2.1,2.98-.55,1.13-.91,2.38-1.09,3.74,5.82-.81,11.63-1.7,17.45-2.65"/><path class="cls-8" d="m789.54,1534.54c1.26-.24,2.53-.47,3.79-.72.31.79.61,1.59.91,2.38.13.33.33.59.59.78.26.2.53.34.82.42.44.13.91.22,1.42.28.51.06,1.04.09,1.6.1.56.01,1.14,0,1.74-.06.6-.05,1.19-.14,1.79-.26.88-.18,1.77-.44,2.69-.79.92-.35,1.76-.78,2.53-1.31.77-.52,1.4-1.11,1.88-1.77.49-.66.75-1.38.79-2.16.03-.66-.06-1.19-.29-1.6-.22-.41-.56-.73-1.02-.97-.46-.24-1.02-.4-1.7-.5-.68-.09-1.45-.16-2.32-.19-1.21-.03-2.4-.07-3.58-.11-1.18-.04-2.34-.09-3.49-.15-1.21-.06-2.27-.25-3.17-.57-.9-.32-1.65-.75-2.26-1.3-.6-.54-1.05-1.18-1.34-1.91-.29-.73-.41-1.54-.38-2.42.05-1.26.5-2.49,1.33-3.69.83-1.2,1.93-2.32,3.29-3.34,1.36-1.02,2.91-1.92,4.66-2.69,1.75-.77,3.57-1.35,5.47-1.74.99-.2,1.93-.37,2.81-.5.88-.13,1.72-.23,2.53-.28.8-.06,1.58-.09,2.34-.11.76-.01,1.54-.01,2.35,0-.07,2.29-.15,4.58-.22,6.87-1.28.28-2.56.56-3.84.84-.31-.85-.62-1.69-.93-2.54-.12-.26-.31-.47-.58-.64-.27-.17-.55-.29-.85-.35-.74-.14-1.55-.19-2.43-.15-.88.04-1.8.16-2.77.36-.99.2-1.91.47-2.74.8-.84.33-1.58.72-2.22,1.17-.64.44-1.14.94-1.51,1.5-.37.55-.56,1.15-.59,1.79-.03.68.07,1.23.3,1.67.22.44.59.8,1.09,1.09.5.29,1.13.5,1.89.64.76.14,1.66.23,2.7.29.49.02.99.05,1.5.08.51.03,1.01.04,1.51.06.5,0,.99.03,1.48.06.49.03.97.05,1.43.05,1.32.06,2.47.18,3.46.39.99.21,1.81.52,2.45.95.65.43,1.12.98,1.41,1.66.29.68.41,1.52.36,2.51-.07,1.44-.56,2.83-1.45,4.17-.89,1.34-2.05,2.56-3.46,3.67-1.41,1.1-3.01,2.06-4.81,2.85-1.79.79-3.61,1.37-5.45,1.75-1.2.24-2.34.42-3.42.53-1.09.11-2.12.17-3.09.17-.98,0-1.91-.02-2.8-.07-.89-.05-1.73-.11-2.54-.19.1-2.26.2-4.52.29-6.79"/><path class="cls-8" d="m506.66,1623.02c1.3-.08,2.61-.16,3.91-.25.37-.03.66-.11.87-.25.21-.14.31-.4.29-.77-.52-10.65-1.03-21.29-1.54-31.94-.02-.37-.16-.69-.42-.96-.26-.26-.6-.51-1-.73-1.26-.69-2.53-1.39-3.79-2.09-.03-.63-.06-1.26-.09-1.89,3.59.28,7.18.53,10.78.75.07,1.58.14,3.16.22,4.74.14.03.27.05.41.08.87-.95,1.82-1.66,2.85-2.12,1.02-.46,2.03-.77,3.03-.92,1-.15,1.94-.18,2.83-.09.89.08,1.64.18,2.26.29,2.11.38,4.02,1.06,5.72,2.04,1.7.98,3.16,2.18,4.36,3.61,1.21,1.43,2.15,3.04,2.84,4.83.68,1.8,1.06,3.68,1.14,5.65.08,2.2-.21,4.21-.86,6.02-.66,1.82-1.65,3.32-2.97,4.52-1.32,1.2-2.95,2.05-4.89,2.54-1.94.5-4.16.52-6.67.05-.96-.18-1.86-.43-2.7-.75-.84-.32-1.62-.67-2.33-1.07-.71-.39-1.35-.81-1.92-1.26-.57-.45-1.07-.9-1.51-1.35.02.41.04.82.06,1.23.15,3.35.31,6.71.47,10.06.02.37.16.68.41.91.26.24.55.43.89.59,1.63.7,3.26,1.39,4.89,2.08.03.65.06,1.3.09,1.94-5.83-1.1-11.66-2.28-17.5-3.54-.03-.65-.07-1.3-.1-1.94m10.7-13.32c.47.36,1.05.69,1.72,1,.68.31,1.37.59,2.09.84.71.25,1.4.47,2.05.64.65.17,1.2.3,1.63.39,1.75.33,3.27.32,4.54-.01,1.27-.33,2.31-.91,3.11-1.73.8-.82,1.38-1.84,1.75-3.07.37-1.22.52-2.56.46-4.02-.07-1.65-.33-3.23-.78-4.73-.46-1.5-1.13-2.86-2.01-4.06-.88-1.2-1.99-2.22-3.31-3.05-1.32-.84-2.87-1.42-4.66-1.75-.53-.1-1.13-.16-1.79-.19-.67-.03-1.34.01-2.02.12-.67.11-1.33.3-1.98.57-.64.27-1.19.64-1.62,1.12.27,5.98.55,11.96.82,17.94"/><path class="cls-8" d="m566.2,1622.73c-2.44-.31-4.67-.95-6.7-1.92-2.03-.97-3.77-2.2-5.24-3.69-1.47-1.49-2.62-3.22-3.47-5.2-.85-1.97-1.32-4.11-1.4-6.42-.07-2.13.24-4.05.96-5.77.71-1.72,1.77-3.15,3.17-4.3,1.4-1.15,3.11-1.97,5.16-2.46,2.04-.49,4.36-.57,6.95-.24,2.78.35,5.22,1.05,7.3,2.1,2.09,1.06,3.82,2.33,5.2,3.85,1.38,1.51,2.43,3.21,3.15,5.1.72,1.89,1.1,3.83,1.15,5.81.05,2.11-.29,4.04-1.02,5.8-.73,1.76-1.79,3.24-3.19,4.43-1.4,1.2-3.11,2.07-5.13,2.6-2.03.53-4.32.64-6.89.31m.35-2.84c1.82.23,3.31.05,4.48-.54,1.17-.58,2.09-1.4,2.76-2.45.67-1.05,1.13-2.23,1.39-3.57.26-1.33.37-2.65.33-3.94-.04-1.58-.26-3.15-.66-4.7-.4-1.56-1.01-2.97-1.83-4.24-.82-1.27-1.87-2.34-3.15-3.22-1.29-.88-2.83-1.43-4.64-1.66-1.22-.15-2.29-.13-3.19.08-.91.21-1.7.55-2.37,1.04-.68.48-1.24,1.07-1.69,1.76-.45.69-.81,1.43-1.07,2.24-.27.8-.45,1.65-.54,2.53-.1.89-.13,1.76-.1,2.61.03.96.13,1.95.3,2.97.17,1.02.43,2.02.77,3.01.35.99.78,1.93,1.31,2.83.53.9,1.17,1.72,1.92,2.45.75.73,1.62,1.34,2.62,1.83.99.49,2.12.82,3.37.98"/><path class="cls-8" d="m590.44,1622.79c1.28-.24,2.55-.48,3.83-.72.35-.06.65-.18.88-.36.24-.18.35-.46.34-.83-.12-6.16-.24-12.31-.36-18.47,0-.46-.17-.83-.49-1.12-.32-.28-.65-.5-.99-.66-1.31-.57-2.63-1.15-3.94-1.73-.01-.63-.03-1.26-.04-1.89,3.72-.15,7.44-.32,11.16-.53.04,2.07.07,4.13.11,6.2.11,0,.21.02.32.02.95-1.08,1.84-2,2.68-2.75.84-.76,1.68-1.36,2.51-1.82.83-.46,1.66-.78,2.49-.95.83-.18,1.69-.24,2.57-.19.5.03,1.02.08,1.55.16s1.04.18,1.55.31c.51.13,1,.32,1.48.54.47.23.93.51,1.35.83.03,2.21.05,4.42.08,6.63-1.28-.07-2.56-.14-3.85-.21-.31-.7-.63-1.4-.94-2.1-.11-.22-.29-.42-.53-.62-.25-.19-.53-.36-.86-.52-.33-.15-.67-.28-1.03-.37-.36-.09-.72-.15-1.07-.17-.91-.06-1.73.03-2.47.25-.74.22-1.43.52-2.05.9-.62.37-1.2.8-1.74,1.28-.54.48-1.04.95-1.52,1.41.09,5.35.19,10.7.28,16.05,0,.37.13.67.36.89.23.22.54.39.92.51,1.63.47,3.25.94,4.87,1.41,0,.65.02,1.29.03,1.94-5.81-.39-11.62-.85-17.43-1.39-.01-.65-.03-1.3-.04-1.94"/><path class="cls-8" d="m628.69,1601.66c-1.83-.07-3.66-.14-5.49-.22,0-.82-.02-1.63-.02-2.45.9-.08,1.72-.17,2.44-.26.73-.09,1.36-.26,1.89-.51.53-.26.95-.63,1.25-1.14.3-.5.48-1.21.54-2.14.09-1.3.19-2.6.29-3.9,1.78-.22,3.57-.45,5.35-.69.02,2.82.04,5.64.05,8.46,4,.11,8,.18,12.01.22-.07,1.01-.14,2.02-.21,3.03-3.92-.04-7.85-.12-11.77-.22.04,6.2.08,12.4.12,18.6,0,.64.23,1.18.68,1.62.45.44,1.01.8,1.67,1.09.66.29,1.34.51,2.06.66.71.15,1.34.23,1.88.24.36,0,.76-.02,1.22-.07.46-.06.91-.12,1.35-.21.44-.08.85-.17,1.22-.28.38-.1.67-.2.88-.28.35,0,.71,0,1.06.01,0,.73,0,1.45,0,2.18-.29.16-.76.38-1.39.66-.63.29-1.37.57-2.2.86-.83.29-1.74.54-2.72.74-.98.2-1.94.29-2.88.27-1.23-.03-2.39-.19-3.48-.48-1.09-.29-2.05-.69-2.87-1.19-.83-.51-1.49-1.12-1.99-1.85-.5-.72-.75-1.53-.76-2.42-.06-6.78-.12-13.57-.17-20.35"/><path class="cls-8" d="m653.58,1625.72c1.44-.35,2.88-.71,4.32-1.08.38-.09.68-.24.91-.45.23-.2.35-.49.35-.87.01-6.66.02-13.32.03-19.98-2.08.02-4.16.02-6.25.02.04-1.01.08-2.02.12-3.03,2.07,0,4.15,0,6.22-.02.17-2.61.62-4.82,1.34-6.65.72-1.82,1.68-3.31,2.86-4.45,1.19-1.14,2.59-1.98,4.23-2.53,1.63-.55,3.43-.84,5.4-.9.36,0,.81,0,1.35.03.54.03,1.1.08,1.68.14.58.06,1.15.13,1.69.2.55.07,1.03.14,1.43.22-.09,1.63-.18,3.25-.26,4.88-.41.01-.82.03-1.24.04-.46-.14-.95-.3-1.45-.46-.51-.16-1.04-.31-1.61-.44-.57-.13-1.17-.24-1.8-.34-.63-.09-1.31-.12-2.03-.11-1.23.03-2.2.17-2.93.42-.73.25-1.27.58-1.63.97-.15.2-.27.55-.37,1.04-.1.5-.18,1.13-.26,1.88-.08.76-.13,1.63-.17,2.64-.04,1-.06,2.12-.06,3.34,3.2-.05,6.4-.13,9.6-.22-.06,1.01-.12,2.03-.18,3.04-3.13.09-6.27.16-9.4.22-.03,6.66-.05,13.32-.08,19.98,0,.37.13.66.39.87.26.21.56.35.89.41,1.68.32,3.36.64,5.04.95,0,.65,0,1.29-.01,1.94-6.04.15-12.08.23-18.12.23,0-.65,0-1.29,0-1.94"/><path class="cls-8" d="m697.59,1626.95c-2.44.16-4.66-.06-6.65-.65-2-.58-3.7-1.49-5.1-2.71-1.41-1.22-2.49-2.74-3.26-4.57-.77-1.82-1.14-3.89-1.12-6.19.02-2.13.42-4.12,1.22-5.99.8-1.87,1.92-3.51,3.38-4.93,1.46-1.42,3.22-2.57,5.29-3.45,2.07-.88,4.41-1.4,7-1.56,2.78-.18,5.2.06,7.25.73,2.05.66,3.74,1.62,5.06,2.88,1.32,1.26,2.3,2.76,2.94,4.53.64,1.76.93,3.64.89,5.62-.04,2.11-.47,4.12-1.28,6.02-.81,1.9-1.95,3.59-3.4,5.06-1.46,1.47-3.21,2.67-5.27,3.59-2.06.92-4.37,1.47-6.94,1.63m.48-2.93c1.82-.12,3.33-.58,4.53-1.39,1.2-.81,2.16-1.81,2.88-2.99.72-1.18,1.24-2.46,1.56-3.85.32-1.39.49-2.73.51-4.03.03-1.58-.12-3.11-.45-4.6-.33-1.49-.88-2.8-1.65-3.92-.77-1.12-1.78-2-3.03-2.64-1.25-.64-2.78-.9-4.59-.79-1.22.08-2.29.3-3.21.69-.92.38-1.73.88-2.43,1.49-.7.62-1.29,1.31-1.78,2.09-.48.78-.88,1.6-1.18,2.45-.31.86-.52,1.74-.66,2.65-.14.91-.21,1.79-.22,2.64-.01.96.04,1.93.17,2.93.12,1,.34,1.96.64,2.88.3.93.7,1.79,1.19,2.6.49.81,1.1,1.51,1.82,2.1.72.59,1.57,1.04,2.55,1.34.98.31,2.09.42,3.34.34"/><path class="cls-8" d="m721.04,1622.47c1.58-.51,3.17-1.02,4.75-1.54.36-.13.66-.3.9-.53.24-.23.37-.53.38-.9.26-10.52.52-21.04.78-31.56,0-.39-.12-.68-.39-.86-.27-.18-.59-.32-.97-.4-1.61-.34-3.23-.68-4.85-1.03.01-.63.03-1.26.04-1.89,4.2-.56,8.41-1.16,12.61-1.79-.32,12.29-.65,24.57-.98,36.86,0,.37.11.65.37.83.26.18.55.29.88.32,1.51.18,3.03.35,4.54.52-.02.65-.04,1.29-.06,1.94-6.02.74-12.04,1.4-18.06,1.99.01-.65.03-1.3.04-1.94"/><path class="cls-8" d="m745.42,1619.68c1.59-.56,3.18-1.13,4.77-1.71.38-.14.69-.33.94-.57.25-.24.38-.54.39-.92.2-6.18.41-12.37.61-18.55.01-.37-.1-.65-.35-.84-.24-.19-.58-.3-.99-.35-1.52-.22-3.04-.45-4.57-.68.02-.64.04-1.28.06-1.92,4.12-1.02,8.25-2.07,12.37-3.16-.29,8.2-.57,16.39-.86,24.59-.01.37.1.65.34.82.24.18.52.28.83.3,1.55.12,3.11.23,4.66.34-.02.65-.05,1.3-.07,1.94-6.06.96-12.13,1.84-18.19,2.65.02-.65.04-1.3.06-1.94m9.67-33.5c-.59.08-1.16.09-1.72,0-.56-.08-1.03-.24-1.44-.47-.4-.24-.72-.55-.96-.94-.24-.39-.35-.86-.33-1.41.02-.55.16-1.06.43-1.54.27-.48.61-.9,1.03-1.25.42-.36.92-.66,1.48-.9.57-.24,1.15-.4,1.74-.48.72-.1,1.37-.12,1.94-.07.58.06,1.07.2,1.47.42.4.22.71.53.93.91.22.38.32.84.3,1.37-.02.57-.16,1.09-.42,1.58-.26.49-.61.93-1.04,1.31-.43.38-.94.7-1.53.95-.59.25-1.22.43-1.89.53"/><path class="cls-8" d="m800.65,1605.22c-.05,1.02-.1,2.04-.15,3.06-.8.7-1.73,1.42-2.79,2.18-1.06.76-2.21,1.47-3.44,2.14-1.23.67-2.53,1.28-3.9,1.81-1.37.54-2.77.94-4.18,1.21-2.27.44-4.39.51-6.33.23-1.94-.28-3.61-.92-5.01-1.92-1.39-1-2.46-2.35-3.22-4.05-.76-1.7-1.09-3.74-.99-6.14.08-2.13.56-4.19,1.42-6.17.86-1.99,2.04-3.79,3.54-5.42,1.5-1.63,3.27-3.01,5.31-4.15,2.05-1.14,4.28-1.94,6.71-2.4,2.24-.43,4.22-.51,5.95-.25,1.73.26,3.18.78,4.36,1.56,1.17.78,2.04,1.79,2.62,3.04.57,1.25.82,2.63.75,4.14,0,.18-.02.39-.05.64-.02.25-.05.52-.09.79-.04.28-.08.55-.13.82-.06.27-.11.49-.16.68-7.88,1.66-15.76,3.19-23.64,4.58-.16,3.9.76,6.66,2.74,8.25,1.99,1.59,4.86,2.04,8.62,1.31,1.21-.23,2.37-.58,3.48-1.04,1.11-.46,2.14-.96,3.08-1.5.95-.54,1.81-1.11,2.6-1.68.78-.57,1.46-1.09,2.02-1.54.29-.06.59-.12.88-.19m-6.08-9.63c.06-1.3-.02-2.44-.26-3.44-.23-1-.64-1.81-1.23-2.43-.59-.62-1.37-1.03-2.35-1.24-.98-.2-2.19-.17-3.62.1-1.26.24-2.44.65-3.52,1.23-1.08.58-2.04,1.31-2.88,2.19-.84.88-1.54,1.9-2.08,3.04-.55,1.15-.91,2.4-1.09,3.77,5.68-1,11.36-2.08,17.05-3.22"/><path class="cls-8" d="m562,1704.84c1.28-.18,2.55-.37,3.83-.56.36-.06.65-.16.85-.32.21-.16.31-.42.29-.8-.34-10.64-.67-21.29-1-31.94-.01-.37-.14-.68-.4-.93-.25-.24-.58-.47-.97-.66-1.22-.6-2.45-1.2-3.68-1.8-.02-.63-.04-1.26-.06-1.89,3.51,0,7.02-.02,10.53-.08.05,1.58.09,3.16.14,4.74.13.02.27.03.4.05.87-1.02,1.81-1.81,2.82-2.35,1.01-.54,2-.93,2.98-1.15.98-.22,1.9-.33,2.77-.31.87.02,1.61.06,2.2.12,2.06.22,3.91.75,5.56,1.6,1.65.85,3.05,1.94,4.21,3.28,1.16,1.34,2.05,2.88,2.69,4.62.64,1.75.98,3.61,1.02,5.58.05,2.2-.27,4.24-.94,6.11-.67,1.87-1.67,3.46-2.98,4.76-1.31,1.3-2.92,2.28-4.82,2.93-1.9.65-4.07.84-6.52.57-.94-.1-1.81-.28-2.63-.54-.82-.25-1.57-.55-2.26-.89-.69-.34-1.31-.71-1.86-1.11-.55-.4-1.03-.81-1.45-1.24.01.41.02.82.04,1.22.1,3.35.2,6.71.29,10.06.01.37.14.67.39.88.25.22.54.39.86.52,1.58.57,3.16,1.14,4.75,1.7.02.65.04,1.3.05,1.94-5.68-.65-11.36-1.38-17.05-2.18-.02-.65-.04-1.3-.07-1.94m10.67-14.2c.46.32,1.01.61,1.67.87.66.26,1.33.48,2.03.68.7.2,1.36.36,1.99.48.63.12,1.16.21,1.59.26,1.71.19,3.19.07,4.44-.37,1.25-.43,2.27-1.09,3.06-1.98.79-.88,1.38-1.96,1.76-3.21.38-1.25.55-2.61.52-4.06-.04-1.65-.27-3.21-.69-4.69-.42-1.47-1.06-2.78-1.9-3.92-.85-1.14-1.91-2.07-3.18-2.81-1.28-.74-2.79-1.2-4.53-1.39-.51-.06-1.1-.07-1.75-.05-.66.02-1.31.12-1.97.28s-1.31.4-1.94.72c-.63.32-1.17.74-1.61,1.25.17,5.98.35,11.96.52,17.94"/><path class="cls-8" d="m603.15,1696.22c1.53-.24,3.06-.48,4.59-.72.34-.06.63-.19.86-.38.23-.19.34-.47.34-.84-.17-10.52-.34-21.04-.51-31.56,0-.39-.15-.7-.42-.93-.27-.23-.59-.42-.97-.57-1.6-.62-3.19-1.24-4.79-1.87-.01-.63-.02-1.26-.03-1.89,4.09.15,8.19.27,12.28.35.17,12.28.34,24.57.51,36.85,0,.37.14.67.39.9.26.23.55.39.88.48,1.49.44,2.98.87,4.47,1.31,0,.65.02,1.29.02,1.94-5.87-.3-11.74-.67-17.61-1.12-.01-.65-.02-1.29-.04-1.94"/><path class="cls-8" d="m648.56,1695.82c-.85,1.04-1.78,1.87-2.77,2.48-1,.62-2,1.09-3.02,1.42-1.01.33-2.01.54-2.97.63-.97.09-1.85.13-2.64.11-1.48-.04-2.81-.3-3.97-.79-1.16-.49-2.15-1.12-2.96-1.88-.81-.77-1.44-1.64-1.89-2.61-.45-.97-.68-1.99-.69-3.03-.01-1.22.23-2.3.72-3.23.49-.93,1.14-1.74,1.95-2.44.81-.7,1.76-1.28,2.84-1.75,1.08-.47,2.2-.85,3.37-1.14,1.16-.29,2.34-.49,3.53-.61,1.19-.12,2.3-.17,3.34-.15.23,0,.57.02,1.04.06.47.03.97.08,1.49.14.52.06,1.01.11,1.47.16.46.05.79.08,1,.1,0-1.31.02-2.62.02-3.94,0-1.01-.16-1.86-.47-2.53-.31-.68-.73-1.22-1.26-1.63-.54-.41-1.18-.71-1.94-.9-.76-.19-1.6-.29-2.53-.31-1.05-.02-2.1.12-3.16.42-1.06.3-2.06.66-3.01,1.08-.95.43-1.84.87-2.65,1.33-.82.47-1.5.84-2.05,1.15-.41-.01-.82-.03-1.23-.04-.09-1.73-.17-3.46-.26-5.2.88-.25,1.78-.51,2.69-.77.91-.26,1.88-.49,2.91-.68,1.03-.19,2.12-.35,3.28-.46,1.16-.12,2.44-.16,3.84-.14,1.5.03,2.97.18,4.41.46,1.44.28,2.72.76,3.84,1.45,1.12.69,2.02,1.63,2.71,2.81.69,1.19,1.03,2.7,1.03,4.55-.02,4.92-.04,9.84-.07,14.77,0,.34.08.64.24.92.16.28.38.51.66.7.27.19.59.35.95.45.36.1.71.16,1.05.16.22,0,.45-.02.69-.07.23-.05.49-.11.76-.19.28-.08.54-.18.79-.29.25-.11.5-.21.75-.3.16,0,.32,0,.49,0,0,.74,0,1.49,0,2.23-.31.2-.71.43-1.21.7-.5.27-1.04.53-1.62.77-.58.24-1.17.46-1.77.63-.6.18-1.14.27-1.63.27-.96,0-1.79-.1-2.5-.3-.71-.2-1.31-.5-1.79-.9-.48-.4-.84-.9-1.07-1.51-.23-.61-.35-1.32-.36-2.16-.13,0-.26,0-.4,0m-.14-10.09c-2.13-.02-4.07.04-5.84.16-1.77.13-3.27.39-4.52.8-1.24.4-2.21.99-2.88,1.75-.68.76-1.01,1.75-1.01,2.98,0,.99.2,1.83.57,2.5.37.68.84,1.22,1.42,1.62.57.41,1.21.7,1.91.87.7.18,1.39.27,2.06.29.67.01,1.4-.03,2.18-.14.78-.11,1.55-.28,2.3-.52.75-.24,1.47-.54,2.14-.92.67-.37,1.23-.83,1.68-1.35,0-2.68-.01-5.36-.02-8.04"/><path class="cls-8" d="m665.65,1698.08c1.24-.38,2.49-.76,3.73-1.14.37-.12.66-.27.89-.47.23-.2.34-.49.34-.86.04-6.26.08-12.52.11-18.79,0-.37-.12-.66-.36-.85-.24-.2-.57-.37-.98-.52-1.2-.41-2.4-.82-3.6-1.23,0-.63,0-1.26,0-1.89,3.51-.55,7.03-1.13,10.55-1.73-.01,1.52-.02,3.03-.04,4.55.13,0,.27,0,.4-.01.93-1.08,1.86-1.94,2.78-2.6.92-.66,1.83-1.17,2.74-1.55.91-.38,1.81-.64,2.7-.78.89-.15,1.77-.24,2.64-.29,1.46-.07,2.83.04,4.11.33,1.28.29,2.4.8,3.35,1.52.96.72,1.7,1.68,2.24,2.86.53,1.19.79,2.63.76,4.34-.08,5.1-.16,10.2-.24,15.3,0,.43.1.74.34.93.23.2.52.33.86.39,1.09.28,2.19.56,3.28.83-.01.65-.02,1.29-.03,1.94-4.99.37-9.99.68-14.98.93,0-.65.02-1.29.02-1.94,1.04-.41,2.09-.82,3.13-1.23.37-.15.68-.32.92-.53.25-.21.37-.53.38-.95.06-4.34.12-8.67.18-13.01.02-1.26-.06-2.37-.23-3.34-.17-.96-.51-1.77-1.01-2.42-.5-.65-1.22-1.12-2.15-1.43-.93-.31-2.15-.42-3.67-.35-.66.03-1.35.11-2.08.23-.73.12-1.45.3-2.16.53-.71.23-1.39.54-2.02.92-.64.38-1.21.84-1.7,1.39-.05,6.09-.1,12.19-.15,18.28,0,.37.12.66.37.85.25.2.54.33.87.41.94.32,1.89.64,2.83.96,0,.65-.01,1.29-.02,1.94-5.04.2-10.07.35-15.1.44,0-.65,0-1.3,0-1.94"/><path class="cls-8" d="m713.34,1671.96c-1.79.16-3.57.31-5.36.45.01-.82.03-1.63.05-2.45.89-.2,1.68-.38,2.4-.55.71-.18,1.33-.42,1.86-.74.53-.32.95-.75,1.26-1.29.31-.54.5-1.28.58-2.2.13-1.31.26-2.63.39-3.94,1.75-.44,3.5-.89,5.24-1.34-.07,2.82-.13,5.64-.2,8.46,3.9-.38,7.81-.8,11.72-1.25-.1,1.02-.2,2.04-.3,3.06-3.83.44-7.66.85-11.49,1.22-.14,6.2-.29,12.4-.43,18.6-.01.64.19,1.15.62,1.53.43.38.96.68,1.6.89.63.21,1.3.34,1.99.4.69.06,1.3.06,1.83,0,.35-.04.75-.11,1.19-.22.45-.11.89-.24,1.32-.37.43-.14.83-.28,1.2-.43.37-.15.66-.28.86-.39.35-.04.69-.08,1.04-.12-.02.73-.04,1.45-.06,2.18-.29.19-.75.47-1.38.84-.63.36-1.36.74-2.18,1.13-.82.39-1.71.75-2.68,1.08-.96.32-1.9.53-2.81.63-1.2.12-2.33.11-3.38-.05-1.05-.15-1.97-.43-2.77-.84-.79-.4-1.42-.94-1.88-1.61-.46-.67-.69-1.44-.67-2.33.14-6.79.29-13.57.43-20.36"/><path class="cls-8" d="m766.18,1683.67c-.04,1.02-.08,2.04-.12,3.06-.78.66-1.68,1.35-2.71,2.05-1.03.71-2.14,1.37-3.34,1.99-1.2.62-2.46,1.16-3.8,1.63-1.33.47-2.69.81-4.07,1.02-2.22.33-4.28.31-6.18-.06-1.9-.37-3.54-1.09-4.9-2.16-1.37-1.07-2.42-2.47-3.18-4.2-.75-1.73-1.09-3.8-1.02-6.2.06-2.13.51-4.17,1.33-6.12.82-1.95,1.96-3.7,3.41-5.26,1.45-1.56,3.17-2.86,5.16-3.91,1.99-1.05,4.17-1.75,6.53-2.1,2.18-.32,4.12-.32,5.81.03,1.69.34,3.11.93,4.27,1.76,1.15.84,2.01,1.89,2.59,3.17.57,1.28.83,2.67.77,4.18,0,.18-.02.39-.04.64-.02.25-.05.51-.08.79-.03.28-.08.55-.13.81-.05.27-.1.49-.15.67-7.69,1.3-15.37,2.46-23.06,3.49-.12,3.9.8,6.7,2.75,8.39,1.95,1.69,4.76,2.27,8.43,1.71,1.18-.18,2.31-.47,3.39-.88,1.08-.41,2.08-.86,3-1.36.92-.5,1.76-1.02,2.52-1.56.76-.54,1.41-1.02,1.96-1.45.28-.05.57-.1.86-.15m-6.01-9.93c.05-1.3-.05-2.45-.28-3.46-.24-1.01-.64-1.84-1.22-2.49-.58-.65-1.35-1.1-2.31-1.35-.96-.25-2.14-.27-3.54-.06-1.23.18-2.38.54-3.42,1.06-1.05.53-1.98,1.22-2.8,2.06-.81.85-1.48,1.83-2.01,2.95-.53,1.12-.87,2.37-1.04,3.73,5.54-.74,11.08-1.56,16.62-2.44"/></g></g></g></svg>